<svg width="20" height="20" viewBox="0 0 20 20" fill="none" xmlns="http://www.w3.org/2000/svg">
<path d="M9 0.0500722V3.07007C5.608 3.55707 3 6.47507 3 10.0001C3 13.8661 6.134 17.0001 10 17.0001C11.572 17.0001 13.024 16.4821 14.192 15.6061L16.329 17.7431C14.605 19.1531 12.4 20.0001 10 20.0001C4.477 20.0001 0 15.5231 0 10.0001C0 4.81507 3.947 0.551072 9 0.0500722ZM19.95 11.0001C19.75 13.0111 18.956 14.8471 17.743 16.3281L15.606 14.1921C16.293 13.2761 16.759 12.1861 16.929 11.0001H19.951H19.95ZM11.002 0.0500722C15.726 0.519072 19.482 4.27607 19.952 9.00007H16.93C16.492 5.93507 14.067 3.51007 11.002 3.07107V0.0490723V0.0500722Z" fill="#595959"/>
</svg>
