<svg width="138" height="34" viewBox="0 0 138 34" fill="none" xmlns="http://www.w3.org/2000/svg">
<g clip-path="url(#clip0_1127_19517)">
<g clip-path="url(#clip1_1127_19517)">
<path d="M22.1088 0.5C24.1585 0.5 25.8202 3.61807 25.8202 6.25989C25.8202 8.90172 24.1585 11.0434 22.1088 11.0434C20.0591 11.0434 18.3975 8.90177 18.3975 6.25989C18.3975 3.61802 20.0591 0.5 22.1088 0.5Z" fill="#43BE8D"/>
<path d="M11.5639 0.5C13.6136 0.5 15.2752 3.61807 15.2752 6.25989C15.2752 8.90172 13.6136 11.0434 11.5639 11.0434C9.51423 11.0434 7.85254 8.90177 7.85254 6.25989C7.85254 3.61802 9.51414 0.5 11.5639 0.5Z" fill="#43BE8D"/>
<path d="M0.449481 14.4328C-0.421018 12.2535 -0.0397793 9.1188 1.69781 8.42469C3.43543 7.73067 5.87141 9.74009 6.74187 11.9193C7.61241 14.0986 6.90944 16.4279 5.17181 17.122C3.43422 17.816 1.31994 16.612 0.449481 14.4328Z" fill="#43BE8D"/>
<path d="M33.224 14.4328C32.3535 16.612 30.2393 17.816 28.5017 17.122C26.764 16.4279 26.0611 14.0986 26.9316 11.9193C27.8021 9.74009 30.238 7.73067 31.9757 8.42469C33.7133 9.1188 34.0945 12.2535 33.224 14.4328Z" fill="#43BE8D"/>
<path d="M30.114 26.4706C29.716 24.6857 28.7672 23.0761 27.7175 21.5844C25.2585 18.0896 21.32 14.5606 16.8364 14.5605C12.3711 14.5605 8.41479 18.0888 5.95517 21.5843C4.90554 23.0761 3.95665 24.6857 3.55868 26.4706C3.16063 28.2555 3.37834 30.2514 4.48402 31.7013C5.58975 33.1513 7.68419 33.8751 9.32208 33.0904C10.2959 32.6238 11.084 31.6827 12.1582 31.5922C13.1444 31.5092 14.016 32.1734 14.8385 32.7287C15.433 33.13 16.1497 33.4952 16.8363 33.4999C17.523 33.4952 18.2396 33.13 18.8342 32.7287C19.6567 32.1734 20.5282 31.5092 21.5145 31.5922C22.5887 31.6827 23.3768 32.6238 24.3506 33.0904C25.9885 33.8751 28.0829 33.1513 29.1887 31.7013C30.2944 30.2514 30.512 28.2555 30.114 26.4706ZM20.7421 24.3206C20.2363 25.245 19.4377 26.0593 18.7637 26.6928C18.4012 27.0334 18.0206 27.3521 17.6239 27.6467L17.6216 27.6484C17.1555 27.9914 16.5172 27.9914 16.0511 27.6484L16.0488 27.6467C15.6521 27.3521 15.2715 27.0334 14.909 26.6928C14.2349 26.0593 13.4364 25.245 12.9306 24.3206C12.5127 23.5571 12.2945 22.7185 12.5107 21.8447C12.7181 21.0072 13.3792 20.2714 14.1897 20.1687C15.127 20.0499 16.2182 20.7094 16.8363 21.467C17.4544 20.7094 18.5457 20.0499 19.4829 20.1687C20.2935 20.2714 20.9546 21.0072 21.1619 21.8447C21.3782 22.7185 21.16 23.5571 20.7421 24.3206Z" fill="#43BE8D"/>
</g>
<path d="M44.4839 17.5065L47.6962 15.8706V6.38249H51.4438V13.967L55.013 12.1527L56.2027 14.6214L51.4438 17.0603V23.7526H60.7237V26.9946H47.6962V18.9639L45.7034 19.9752L44.4839 17.5065Z" fill="#194634"/>
<path d="M68.8193 24.4664C69.9298 24.4664 70.7725 24.4069 71.3475 24.288V20.3024C71.1492 20.2429 70.8617 20.1834 70.485 20.1239C70.1082 20.0644 69.6918 20.0347 69.2357 20.0347C68.8392 20.0347 68.4327 20.0644 68.0163 20.1239C67.6197 20.1834 67.2529 20.2924 66.9158 20.4511C66.5985 20.6097 66.3407 20.8377 66.1424 21.1352C65.9442 21.4128 65.845 21.7697 65.845 22.2059C65.845 23.0586 66.1127 23.6534 66.6481 23.9905C67.1835 24.3078 67.9072 24.4664 68.8193 24.4664ZM68.5219 11.0522C69.7116 11.0522 70.713 11.2009 71.526 11.4984C72.339 11.7958 72.9834 12.2122 73.4593 12.7476C73.955 13.2829 74.302 13.9373 74.5003 14.7106C74.7184 15.4641 74.8275 16.2969 74.8275 17.2091V26.6377C74.2723 26.7566 73.4295 26.8954 72.2993 27.0541C71.1889 27.2325 69.9298 27.3218 68.5219 27.3218C67.5899 27.3218 66.7373 27.2325 65.964 27.0541C65.1907 26.8756 64.5264 26.5881 63.9712 26.1915C63.4358 25.7949 63.0095 25.2794 62.6922 24.6449C62.3948 24.0104 62.2461 23.2271 62.2461 22.2952C62.2461 21.4029 62.4146 20.6494 62.7517 20.0347C63.1086 19.42 63.5845 18.9243 64.1794 18.5475C64.7743 18.1509 65.4583 17.8733 66.2317 17.7147C67.0248 17.5362 67.8477 17.447 68.7004 17.447C69.0969 17.447 69.5133 17.4767 69.9496 17.5362C70.3858 17.5759 70.8518 17.6552 71.3475 17.7742V17.1793C71.3475 16.7629 71.2979 16.3663 71.1988 15.9896C71.0997 15.6128 70.9212 15.2857 70.6634 15.0081C70.4255 14.7106 70.0983 14.4826 69.6819 14.324C69.2853 14.1653 68.7797 14.086 68.165 14.086C67.3322 14.086 66.5688 14.1455 65.8748 14.2645C65.1807 14.3834 64.6156 14.5222 64.1794 14.6809L63.7332 11.766C64.1893 11.6074 64.8536 11.4488 65.726 11.2901C66.5985 11.1315 67.5305 11.0522 68.5219 11.0522Z" fill="#194634"/>
<path d="M88.114 19.2911C88.114 17.6849 87.7472 16.4357 87.0135 15.5434C86.2997 14.6511 85.1397 14.205 83.5336 14.205C83.1965 14.205 82.8395 14.2248 82.4628 14.2645C82.1059 14.2843 81.749 14.3438 81.392 14.4429V23.3362C81.7093 23.5543 82.1257 23.7625 82.6413 23.9608C83.1766 24.1392 83.7418 24.2285 84.3366 24.2285C85.6453 24.2285 86.5971 23.7823 87.192 22.89C87.8067 21.9977 88.114 20.7981 88.114 19.2911ZM91.8022 19.2316C91.8022 20.4213 91.6436 21.5119 91.3263 22.5034C91.0289 23.4948 90.5926 24.3474 90.0176 25.0613C89.4425 25.7751 88.7188 26.3303 87.8463 26.7269C86.9937 27.1235 86.0221 27.3218 84.9315 27.3218C84.1978 27.3218 83.5236 27.2325 82.9089 27.0541C82.2942 26.8756 81.7886 26.6773 81.392 26.4592V32.4971H77.7931V11.9445C78.5268 11.7462 79.429 11.5578 80.4997 11.3794C81.5705 11.2009 82.7007 11.1117 83.8905 11.1117C85.1199 11.1117 86.2204 11.3001 87.192 11.6768C88.1636 12.0536 88.9865 12.5989 89.6607 13.3127C90.3547 14.0067 90.8801 14.8593 91.2371 15.8706C91.6138 16.8621 91.8022 17.9824 91.8022 19.2316Z" fill="#194634"/>
<path d="M104.201 19.2911C104.201 17.6849 103.834 16.4357 103.101 15.5434C102.387 14.6511 101.227 14.205 99.6208 14.205C99.2837 14.205 98.9268 14.2248 98.55 14.2645C98.1931 14.2843 97.8362 14.3438 97.4793 14.4429V23.3362C97.7965 23.5543 98.2129 23.7625 98.7285 23.9608C99.2639 24.1392 99.829 24.2285 100.424 24.2285C101.733 24.2285 102.684 23.7823 103.279 22.89C103.894 21.9977 104.201 20.7981 104.201 19.2911ZM107.889 19.2316C107.889 20.4213 107.731 21.5119 107.414 22.5034C107.116 23.4948 106.68 24.3474 106.105 25.0613C105.53 25.7751 104.806 26.3303 103.934 26.7269C103.081 27.1235 102.109 27.3218 101.019 27.3218C100.285 27.3218 99.6109 27.2325 98.9962 27.0541C98.3815 26.8756 97.8758 26.6773 97.4793 26.4592V32.4971H93.8803V11.9445C94.614 11.7462 95.5162 11.5578 96.587 11.3794C97.6577 11.2009 98.788 11.1117 99.9777 11.1117C101.207 11.1117 102.308 11.3001 103.279 11.6768C104.251 12.0536 105.074 12.5989 105.748 13.3127C106.442 14.0067 106.967 14.8593 107.324 15.8706C107.701 16.8621 107.889 17.9824 107.889 19.2316Z" fill="#194634"/>
<path d="M113.885 17.5065C114.341 17.0306 114.827 16.525 115.342 15.9896C115.858 15.4344 116.363 14.8891 116.859 14.3537C117.355 13.7985 117.821 13.273 118.257 12.7773C118.713 12.2618 119.1 11.8156 119.417 11.4389H123.67C122.679 12.5493 121.628 13.6994 120.518 14.8891C119.427 16.0788 118.327 17.2388 117.216 18.369C117.811 18.8648 118.436 19.4695 119.09 20.1834C119.744 20.8774 120.379 21.621 120.994 22.4141C121.608 23.2073 122.183 24.0004 122.719 24.7936C123.254 25.5867 123.7 26.3204 124.057 26.9946H119.893C119.536 26.3799 119.12 25.7355 118.644 25.0613C118.188 24.3871 117.692 23.7327 117.157 23.0982C116.621 22.4637 116.076 21.8688 115.521 21.3136C114.966 20.7386 114.42 20.2528 113.885 19.8562V26.9946H110.286V4.50868L113.885 3.91382V17.5065Z" fill="#194634"/>
<path d="M131.397 24.4664C132.508 24.4664 133.35 24.4069 133.925 24.288V20.3024C133.727 20.2429 133.44 20.1834 133.063 20.1239C132.686 20.0644 132.27 20.0347 131.814 20.0347C131.417 20.0347 131.01 20.0644 130.594 20.1239C130.198 20.1834 129.831 20.2924 129.494 20.4511C129.176 20.6097 128.919 20.8377 128.72 21.1352C128.522 21.4128 128.423 21.7697 128.423 22.2059C128.423 23.0586 128.691 23.6534 129.226 23.9905C129.761 24.3078 130.485 24.4664 131.397 24.4664ZM131.1 11.0522C132.289 11.0522 133.291 11.2009 134.104 11.4984C134.917 11.7958 135.561 12.2122 136.037 12.7476C136.533 13.2829 136.88 13.9373 137.078 14.7106C137.296 15.4641 137.405 16.2969 137.405 17.2091V26.6377C136.85 26.7566 136.007 26.8954 134.877 27.0541C133.767 27.2325 132.508 27.3218 131.1 27.3218C130.168 27.3218 129.315 27.2325 128.542 27.0541C127.768 26.8756 127.104 26.5881 126.549 26.1915C126.014 25.7949 125.587 25.2794 125.27 24.6449C124.973 24.0104 124.824 23.2271 124.824 22.2952C124.824 21.4029 124.992 20.6494 125.33 20.0347C125.686 19.42 126.162 18.9243 126.757 18.5475C127.352 18.1509 128.036 17.8733 128.809 17.7147C129.603 17.5362 130.426 17.447 131.278 17.447C131.675 17.447 132.091 17.4767 132.527 17.5362C132.964 17.5759 133.43 17.6552 133.925 17.7742V17.1793C133.925 16.7629 133.876 16.3663 133.777 15.9896C133.677 15.6128 133.499 15.2857 133.241 15.0081C133.003 14.7106 132.676 14.4826 132.26 14.324C131.863 14.1653 131.357 14.086 130.743 14.086C129.91 14.086 129.147 14.1455 128.453 14.2645C127.759 14.3834 127.193 14.5222 126.757 14.6809L126.311 11.766C126.767 11.6074 127.431 11.4488 128.304 11.2901C129.176 11.1315 130.108 11.0522 131.1 11.0522Z" fill="#194634"/>
</g>
<defs>
<clipPath id="clip0_1127_19517">
<rect width="137.69" height="33" fill="white" transform="translate(0 0.5)"/>
</clipPath>
<clipPath id="clip1_1127_19517">
<rect width="33.6737" height="33" fill="white" transform="translate(0 0.5)"/>
</clipPath>
</defs>
</svg>
