<svg width="18" height="15" viewBox="0 0 18 15" fill="none" xmlns="http://www.w3.org/2000/svg">
<path d="M1.78539 3.48159C1.97385 3.02661 2.25008 2.61321 2.5983 2.26499C2.94652 1.91677 3.35992 1.64054 3.8149 1.45208C4.26987 1.26362 4.75751 1.16663 5.24997 1.16663C5.74243 1.16663 6.23007 1.26362 6.68504 1.45208C7.14002 1.64054 7.55342 1.91677 7.90164 2.26499L8.99997 3.36333L10.0983 2.26499C10.8016 1.56173 11.7554 1.16664 12.75 1.16664C13.7445 1.16664 14.6984 1.56173 15.4016 2.26499C16.1049 2.96826 16.5 3.92209 16.5 4.91666C16.5 5.91123 16.1049 6.86506 15.4016 7.56833L8.99997 13.97L2.5983 7.56833C2.25008 7.22011 1.97385 6.80671 1.78539 6.35173C1.59694 5.89676 1.49994 5.40912 1.49994 4.91666C1.49994 4.4242 1.59694 3.93656 1.78539 3.48159Z" stroke="#43BE8D" stroke-width="1.6" stroke-linecap="round" stroke-linejoin="round"/>
</svg>
