<svg width="40" height="40" viewBox="0 0 40 40" fill="none" xmlns="http://www.w3.org/2000/svg">
<circle cx="20" cy="20" r="20" fill="#0DE18C"/>
<g clip-path="url(#clip0_2434_18747)">
<path d="M27.7628 12.1891C27.6801 12.1166 27.5625 12.0998 27.4628 12.146L9.44652 20.5169C9.34953 20.562 9.28707 20.6588 9.28591 20.7657C9.28474 20.8726 9.34515 20.9707 9.44119 21.0179L14.5398 23.52C14.6333 23.566 14.7447 23.5556 14.8282 23.4932L19.7855 19.7881L15.8938 23.7911C15.8383 23.8482 15.81 23.9264 15.8161 24.0058L16.2036 29.052C16.2122 29.1638 16.2871 29.2594 16.3937 29.2944C16.4222 29.3038 16.4514 29.3083 16.4803 29.3083C16.5597 29.3083 16.6369 29.2743 16.6905 29.2121L19.3967 26.0762L22.7421 27.6747C22.8147 27.7094 22.8987 27.7108 22.9725 27.6787C23.0463 27.6466 23.1025 27.584 23.1266 27.5073L27.8446 12.481C27.8775 12.3761 27.8454 12.2616 27.7628 12.1891Z" fill="white"/>
</g>
<defs>
<clipPath id="clip0_2434_18747">
<rect width="18.5714" height="18.5714" fill="white" transform="translate(9.28552 11.4286)"/>
</clipPath>
</defs>
</svg>
