<svg width="388" height="361" viewBox="0 0 388 361" fill="none" xmlns="http://www.w3.org/2000/svg">
<g clip-path="url(#clip0_2979_19282)">
<path d="M212.441 88.9809C211.592 88.2352 213.211 87.4596 213.629 86.8909C216.935 83.8418 219.602 80.2453 222.068 76.5064C220.491 75.197 218.772 74.0524 216.994 73.0382C217.058 73.0752 217.121 73.1112 217.184 73.1471C214.115 72.8235 214.781 66.0436 217.088 67.0238C218.333 68.57 220.099 69.5769 221.623 70.8371C224.837 73.2825 226.738 75.9982 223.081 79.1793C219.848 82.7531 216.53 86.3923 212.441 88.9809Z" fill="#43BE8D"/>
<path d="M212.506 89.357C211.669 88.3981 214.456 86.6664 215.006 85.8497C217.804 83.1595 220.445 80.3143 223.304 77.6937C223.637 77.2575 223.685 76.5191 224.296 76.3326C225.384 76.2541 225.493 77.859 225.483 78.6552C225.615 80.5433 223.917 81.2867 222.579 82.1689C219.079 84.3474 215.943 87.1433 212.504 89.3614L212.506 89.357Z" fill="#43BE8D"/>
<path d="M211.893 90.3601C211.633 90.4892 211.52 90.0911 211.504 89.9063C211.436 88.3138 213.544 87.8932 214.554 87.0292C216.949 85.7295 219.148 84.1478 221.402 82.6316C221.298 80.3543 223.876 79.9204 225.564 79.3349C225.061 78.4676 224.564 77.4424 224.996 76.447C225.132 76.1043 225.469 75.7172 225.81 76.0852C226.499 77.0868 227.452 77.7742 228.371 78.4733C229.504 83.7367 228.68 84.1345 224.024 85.8149C219.986 87.3701 215.994 89.0784 211.872 90.4002C211.879 90.3868 211.886 90.3735 211.893 90.3601Z" fill="#43BE8D"/>
<path d="M212.488 91.5396C209.272 87.1659 224.222 81.8831 227.449 81.8414C224.675 77.3631 221.384 73.0901 217.303 69.7021C217.188 69.7551 217.188 69.5491 217.141 69.4844L217.145 69.4767C216.911 68.4207 219.64 70.5354 220.011 70.7218C222.872 72.9383 225.761 75.0442 228.118 77.8161C229.641 79.4663 232.532 86.413 228.195 85.7872C227.987 86.237 227.541 86.3252 227.092 86.3038C222.818 87.3846 218.653 88.9568 214.532 90.5232C214.562 90.5083 214.593 90.4946 214.623 90.4798C213.928 90.741 213.347 91.2281 212.696 91.5481L212.697 91.5442C212.628 91.5667 212.559 91.5659 212.488 91.5396Z" fill="#43BE8D"/>
<path d="M213.575 89.943C211.616 88.2201 213.942 83.6997 214.01 81.3366C214.145 79.7008 213.627 77.9731 214.675 76.4687C215.06 74.2002 215.259 71.5015 216.802 69.7183C217.208 69.0774 217.86 69.4344 218.403 69.6937C219.787 69.7812 220.232 71.3485 220.565 72.4634C222.59 72.2812 225.252 77.8344 224.746 79.6112C224.254 83.0873 222.663 81.1272 220.826 79.9909C219.804 81.7607 219.964 84.8785 217.867 85.7271C217.512 86.141 216.993 86.6325 216.398 86.4687C216.219 86.9258 215.762 87.5558 215.209 87.2481C214.847 88.1003 214.804 90.0376 213.575 89.943Z" fill="#43BE8D"/>
<path d="M169.263 152.379C161.486 150.247 153.818 147.65 146.308 144.701C140.19 142.578 134.354 139.658 129.175 135.792C129.18 135.791 129.187 135.791 129.193 135.79C126.876 134.983 128.921 126.33 128.87 124.026C128.717 123.926 128.558 123.832 128.399 123.738C128.452 123.768 128.505 123.799 128.558 123.828C121.397 119.813 122.031 109.489 123.611 102.533C123.591 102.484 123.569 102.435 123.546 102.388C123.549 102.394 123.553 102.401 123.557 102.408C123.236 101.849 122.848 101.331 122.841 100.646L122.841 100.65C122.089 91.0313 120.18 81.5402 119.655 71.8983C119.053 71.6815 119.21 70.7041 119.457 70.2504C119.249 69.675 119.419 67.8937 120.005 69.2995C120.215 68.9868 120.461 68.6963 120.744 68.4481C124.989 62.4128 139.115 62.6636 146.069 61.0135C146.054 61.0156 146.04 61.0177 146.025 61.0198C146.163 61.0019 146.301 60.9849 146.439 60.967H146.432C146.463 60.964 146.492 60.9589 146.522 60.9553L146.475 60.9617C153.113 59.435 148.696 65.4673 152.802 69.545C156.561 72.371 161.925 71.4228 166.363 71.4186C174.217 70.7593 183.994 69.0956 187.59 61.1193C187.858 60.4197 188.467 59.4735 189.333 59.7537C190.459 60.3343 191.762 60.4275 192.961 60.8137C195.406 61.2542 195.312 64.5628 194.415 66.3253C190.713 70.9211 187.485 75.7812 185.165 81.2328C184.149 83.4061 183.747 85.8968 183.995 88.2758C186.744 88.0863 188.064 84.573 189.067 82.355C190.756 78.9402 192.449 75.5274 193.946 72.0242C193.933 72.0517 193.92 72.0792 193.907 72.1056C199.597 59.1727 193.711 65.3313 210.737 68.3994C210.903 68.0336 211.121 68.0891 211.09 68.4936C211.09 68.4936 211.091 68.4925 211.092 68.4925C211.087 68.538 211.08 68.5835 211.073 68.629C211.307 68.9386 211.201 69.4149 210.841 69.5735C209.668 73.7742 209.378 78.174 208.885 82.4933C208.892 82.396 208.899 82.2987 208.907 82.2014C208.808 84.9024 208.33 87.6068 208.449 90.3055C208.448 90.3013 208.448 90.297 208.447 90.2928C208.726 91.4872 208.125 95.2548 206.353 93.7706C206.09 93.9287 205.755 93.9418 205.481 94.0826C205.524 94.0614 205.568 94.0413 205.611 94.0212C204.196 94.8075 202.567 94.9644 201.119 95.6649C201.129 95.6596 201.141 95.6543 201.152 95.649C200.313 96.041 199.474 96.4307 198.614 96.7755C195.731 101.606 193.125 106.553 191.323 111.914C189.696 115.729 187.659 119.355 186.346 123.308C183.268 130.286 180.27 137.298 177.009 144.19C176.277 145.58 175.307 146.846 174.742 148.317C174.224 149.547 174.171 151.213 173.114 152.101C173.12 152.099 173.127 152.095 173.133 152.092C171.924 152.593 170.538 152.65 169.263 152.379Z" fill="#43BE8D"/>
<path d="M132.72 166.264C130.078 165.033 126.894 165.16 124.356 163.688C123.358 161.982 124.383 159.856 124.315 157.992C124.308 158.071 124.303 158.149 124.297 158.227C124.461 157.004 124.4 155.481 125.33 154.556C125.35 154.386 125.539 154.284 125.584 154.491C126.033 154.612 126.072 155.155 126.164 155.554C126.155 155.518 126.145 155.481 126.136 155.444C126.158 155.529 126.181 155.613 126.203 155.697C127.976 157.488 130.785 158.474 131.645 161.008C132.435 161.234 133.463 160.941 134.087 161.543C135.054 162.82 134.978 166.721 132.72 166.264Z" fill="#43BE8D"/>
<path d="M209.565 170.223C202.823 168.278 199.366 172.548 199.485 166.572C200.018 161.889 203.673 158.252 205.77 154.175C207.446 151.535 209.005 148.817 210.657 146.164C211.331 145.275 211.834 142.795 213.085 142.876C213.078 142.339 214.878 134.329 215.246 137.113C215.226 137.466 215.454 137.964 215.223 138.251C215.014 138.175 215.146 137.81 215.087 137.629C213.282 147.13 212.659 156.847 211.867 166.483C211.872 166.416 211.877 166.349 211.883 166.282C211.809 167.766 211.739 170.665 209.565 170.223Z" fill="#43BE8D"/>
<path d="M136.843 22.2137C136.031 22.1365 135.792 20.9793 135.717 20.3331C135.233 15.9996 139.751 13.4501 142.697 11.1182C149.019 7.25563 157.27 5.45103 164.365 8.1323C167.735 9.15134 170.516 9.74659 172.757 12.5327C172.9 12.9161 172.85 13.9581 172.294 13.9076C171.274 13.268 170.096 13.1089 168.922 12.9747C163.076 12.0857 157.16 10.9749 151.413 13.0047C146.34 14.1226 141.907 17.0793 138.334 20.7757C137.867 21.2516 137.594 22.1741 136.843 22.2137Z" fill="#43BE8D"/>
<path d="M147.391 39.4338C144.921 38.3495 146.277 32.933 149.192 33.9148C151.624 35.0209 149.824 39.6976 147.391 39.4338Z" fill="#43BE8D"/>
<path d="M165.913 34.3968C163.931 34.4105 162.921 32.3565 163.47 30.6069C163.586 30.1658 163.881 29.4639 164.437 29.5813L164.427 29.5789C165.571 29.5853 166.731 29.4007 167.846 29.8159C169.646 25.1391 172.666 35.0862 165.913 34.3968Z" fill="#43BE8D"/>
<path d="M198.028 59.2099C194.393 56.5652 197.698 50.1139 198.877 46.749C200.305 41.612 205.541 34.7581 205.907 44.6891C210.092 48.1196 205.313 53.7407 202.276 56.2713C200.975 57.265 199.793 59.2615 198.028 59.2099Z" fill="#43BE8D"/>
<path d="M225.979 62.3504C223.573 62.1463 223.603 51.7371 225.97 51.6389C228.504 52.4515 229.352 62.2875 225.979 62.3504Z" fill="#43BE8D"/>
<path d="M152.062 37.4981C149.161 37.1456 151.198 33.1261 152.039 31.5851C151.735 30.0887 150.202 27.0461 150.696 25.7534C151.206 27.7094 152.36 29.6416 153.078 31.5897C153.273 33.0638 151.791 34.0756 151.499 35.465C152.809 35.6427 153.761 34.3212 154.648 33.6259C156.306 35.081 153.533 37.2302 152.062 37.4981Z" fill="#205B43"/>
<path d="M158.032 40.9512C157.033 40.8247 154.822 39.9485 155.316 38.7162C155.384 38.7163 155.418 38.8167 155.418 38.9176C156.048 39.6775 157.831 40.1768 158.556 39.4284C158.677 39.0434 158.445 38.3429 158.962 38.1906C159.8 38.6927 159.216 41.2272 158.032 40.9512Z" fill="#205B43"/>
<path d="M146.542 32.8434C145.847 32.3025 144.857 30.2188 145.898 29.7544C147.575 27.578 148.389 33.5356 146.542 32.8434Z" fill="#205B43"/>
<path d="M161.275 28.844C159.767 28.6572 159.231 24.4892 160.885 24.543C162.187 24.7906 162.841 28.5961 161.275 28.844Z" fill="#205B43"/>
<path d="M141.725 24.7639C141.596 24.7003 141.578 24.1502 141.765 24.1679C142.445 22.4872 144.191 21.2336 145.988 22.1092C146.397 22.4921 146.439 23.6169 145.855 23.8374C144.993 23.193 143.707 22.8641 142.782 23.6475C142.394 23.9667 142.167 24.5452 141.725 24.7639Z" fill="#205B43"/>
<path d="M156.747 18.693C156.819 17.8167 157.777 17.2622 158.282 16.5997C159.138 15.3874 160.772 15.2994 161.909 16.1768C162.535 16.596 162.631 18.7851 161.613 18.5619C160.481 16.5598 158.051 17.4658 156.882 18.8973C156.793 18.8971 156.758 18.7607 156.747 18.693Z" fill="#205B43"/>
<path d="M197.167 59.6581C196.413 59.2744 196.526 57.4797 197.329 57.2842C198.471 55.9471 198.459 60.0463 197.167 59.6581Z" fill="#205B43"/>
<path d="M211.82 63.2383C211.261 62.5163 211.355 61.2905 212.058 60.694C212.528 59.83 213.036 60.9739 213.005 61.4921C213.076 62.0934 212.648 63.8452 211.82 63.2383Z" fill="#205B43"/>
<path d="M198.563 54.3633C198.246 54.0904 198.159 53.653 197.881 53.345C197.625 53.3377 197.786 52.6198 197.995 53.003C198.16 53.3825 198.649 53.5025 198.793 53.8576C198.829 54.0151 198.802 54.4497 198.563 54.3633Z" fill="#205B43"/>
<path d="M212.517 56.6165C212.427 56.4965 212.423 56.1531 212.61 56.1372C212.977 56.0874 213.874 55.4897 213.864 56.1923C213.896 56.618 213.485 56.4741 213.212 56.5023L213.235 56.4991C212.996 56.4973 212.728 56.6593 212.517 56.6165Z" fill="#205B43"/>
<path d="M74.1643 221.549C73.2181 220.256 75.3656 219.076 76.1208 218.203C76.2268 218.119 76.3421 218.048 76.468 217.997C76.7006 217.923 76.7295 218.704 76.4289 218.739C76.4384 218.735 76.4469 218.73 76.4563 218.726C76.3918 218.764 76.3326 218.806 76.2734 218.852L76.2988 218.83C75.4962 219.549 74.8258 220.441 74.415 221.436C74.3581 221.517 74.2637 221.587 74.1643 221.549Z" fill="#205B43"/>
<path d="M76.8914 223.156C76.0289 222.184 78.3295 219.236 79.2012 219.055C79.9637 220.003 78.8484 220.878 78.247 221.542C77.7749 221.821 77.4108 223.616 76.8914 223.156Z" fill="#205B43"/>
<path d="M223.342 242.813C223.248 241.381 223.32 239.9 223.427 238.468C223.853 237.306 224.139 238.66 224.02 239.19L224.02 239.19C224.184 239.695 224.446 244.855 223.342 242.813Z" fill="#205B43"/>
<path d="M224.784 245.025C224.638 244.24 224.799 243.441 224.756 242.65C224.757 242.657 224.757 242.664 224.758 242.67C224.472 241.471 225.358 240.648 225.385 242.363C225.384 242.356 225.384 242.349 225.383 242.343C225.385 242.363 225.386 242.383 225.388 242.403C225.387 242.395 225.386 242.386 225.386 242.378C225.39 242.771 225.671 246.732 224.784 245.025Z" fill="#205B43"/>
<path d="M154.066 8.89429C153.091 8.97534 152.133 9.15937 151.2 9.4591L154.066 8.89429Z" fill="#205B43"/>
<path d="M158.111 8.63071C156.836 8.62431 155.569 8.75928 154.301 8.87082L158.111 8.63071Z" fill="#205B43"/>
<path d="M179.263 54.0401L179.263 54.0366C179.263 54.0311 179.263 54.0255 179.263 54.02V54.0401ZM177.499 33.2583C177.497 33.244 177.494 33.2293 177.491 33.2149C177.487 33.1977 177.484 33.1804 177.48 33.1631C177.486 33.1949 177.493 33.2266 177.499 33.2583ZM180.901 53.4922C182.091 54.6536 183.633 52.6454 184.412 51.7956C185.426 54.1353 186.778 51.7978 187.198 50.4555C191.549 60.333 192.972 41.9761 192.678 38.9403C191.984 29.7237 190.443 19.9493 184.843 12.3357C179.335 4.71215 169.483 0.953331 160.277 0.977903C154.461 1.32214 148.441 3.16144 143.62 6.47403C139.461 9.86777 137.116 15.1999 136.36 20.4306C136.286 21.0717 135.79 22.8485 136.792 22.8759C136.518 26.9015 136.953 30.8852 137.477 34.8703C137.917 38.9785 137.71 43.1173 137.643 47.2402C137.752 49.1459 137.055 51.6838 138.53 53.1653C139.246 54.5261 139.649 54.0987 140.305 53.0109C140.278 53.0448 140.253 53.0786 140.227 53.1124C140.549 52.6865 140.861 52.2603 141.195 51.8443C141.699 53.2294 143.357 55.5513 144.379 53.1939C146.343 56.7871 151.325 56.6912 154.91 57.1296C154.868 58.2094 154.809 59.2884 154.658 60.3588V60.3535C154.631 60.6359 154.655 60.9236 154.749 61.1901C154.731 61.2747 154.713 61.3593 154.695 61.444C153.523 61.2962 150.324 59.9088 149.797 61.3362C149.543 62.093 149.392 63.5228 150.302 63.8619C151.64 63.3664 153.047 63.0452 154.441 62.7132C154.459 64.4758 155.628 63.5682 155.386 62.332C155.386 62.329 155.386 62.3261 155.386 62.3229C155.531 62.2105 155.736 61.5635 155.405 61.682C155.389 61.6767 155.374 61.6714 155.358 61.664C155.359 61.646 155.359 61.628 155.359 61.61C156.172 60.3434 155.707 58.5206 155.964 57.0577C156.761 56.1188 156.732 54.5723 156.164 53.5239C156.183 51.9324 156.178 50.3413 156.108 48.7505C155.813 47.4041 156.72 44.4069 155.049 43.9411C151.456 44.2305 148.403 41.5435 146.757 38.5669L146.55 38.1946C144.37 34.5453 142.405 30.7388 140.772 26.8116L140.779 26.8275C139.766 24.3611 138.848 21.6306 138.963 18.9381C138.974 18.8161 138.945 18.4854 138.744 18.5361C139.799 15.3653 142.843 13.219 145.654 11.7415C145.654 11.7415 151.2 8.89415 158.11 8.63076C159.562 8.57543 160.728 8.54236 161.826 8.67731C161.823 8.67625 161.819 8.67625 161.815 8.67519C170.883 9.85981 171.877 12.2469 174.731 20.3936C175.265 21.1571 174.968 22.676 176.029 22.9542C176.028 22.9552 176.027 22.9552 176.027 22.9552C177.943 22.6225 180.254 23.419 180.925 25.3891C180.566 26.437 179.533 27.209 178.637 27.8282C176.179 28.7489 177.158 31.2518 177.491 33.2149C179.054 39.9787 179.575 46.8536 179.273 53.7841C179.274 53.7714 179.274 53.7587 179.275 53.746C179.273 53.788 179.27 53.8288 179.27 53.8708V53.8655C179.268 53.892 179.267 53.9184 179.266 53.9438C179.267 53.9206 179.268 53.8962 179.27 53.8729C179.268 53.9272 179.264 53.9824 179.263 54.0366C179.334 56.9397 178.543 59.999 179.184 62.8284C179.66 63.9239 180.519 63.0624 180.613 62.2552C183.356 62.845 186.281 62.5853 188.956 63.4187C189.164 63.5252 189.365 63.2714 189.447 63.1151C189.705 62.5482 189.835 61.4066 189.137 61.1319C186.333 60.8052 183.491 61.0072 180.687 61.2673C180.703 59.7542 180.732 58.2388 180.794 56.7266C180.794 56.7414 180.793 56.7573 180.793 56.7721C180.827 55.6787 180.884 54.5866 180.901 53.4922V53.4922ZM156.108 48.7442V48.7505C156.11 48.7843 156.111 48.8182 156.112 48.851C156.111 48.8161 156.11 48.7801 156.108 48.7442Z" fill="#205B43"/>
<path d="M150.89 9.55322C149.942 9.84273 148.985 10.1226 148.074 10.5168L150.89 9.55322Z" fill="#205B43"/>
<path d="M344.017 121.647C345.646 125.167 351.433 122.187 346.378 117.658C346.393 117.676 346.408 117.693 346.423 117.71C346.39 117.671 346.358 117.632 346.325 117.592C346.343 117.614 346.36 117.636 346.378 117.658C345.486 116.385 343.158 115.3 342.414 117.274C341.972 118.843 343.72 119.872 343.923 121.319L343.866 121.129C343.917 121.298 343.946 121.489 344.017 121.647ZM285.638 125.896C285.65 125.907 285.675 125.943 285.685 125.956C285.53 125.738 285.37 125.521 285.209 125.305C285.353 125.499 285.496 125.695 285.635 125.892L285.632 125.889C285.633 125.89 285.635 125.893 285.636 125.894L285.635 125.892L285.637 125.894H285.636C285.637 125.894 285.637 125.895 285.638 125.896ZM345.228 174.146L345.217 174.204C345.288 173.91 345.363 173.616 345.44 173.327C345.368 173.598 345.295 173.87 345.229 174.142C345.232 174.134 345.234 174.125 345.236 174.117C345.234 174.126 345.232 174.137 345.228 174.146ZM317.333 150.056C312.604 165.417 307.598 180.722 303.796 196.347C301.533 203.03 303.786 209.948 303.826 216.976C305.898 210.797 308.578 204.843 311.602 199.094C315.996 183.964 322.629 169.29 331.528 156.27C329.322 150.507 331.695 144.215 334.314 138.994C335.35 139.986 336.482 140.882 337.685 141.659C337.684 141.658 337.682 141.658 337.681 141.656C337.7 141.667 337.717 141.678 337.736 141.687C337.733 141.685 337.73 141.684 337.728 141.682C340.147 143.029 342.483 141.625 341.309 138.819C340.48 136.874 338.778 135.436 337.352 133.923C338.882 131.462 340.651 129.163 342.643 127.06C337.449 129.535 330.988 133.022 325.357 129.981C325.215 130.524 324.738 130.58 324.26 130.485C323.173 133.347 322.075 136.205 321.1 139.109C321.12 139.051 321.14 138.992 321.16 138.933C319.912 142.651 318.599 146.347 317.333 150.056ZM300.159 211.937C298.626 221.086 296.766 230.538 298.136 239.808C299.107 234.225 300.613 228.766 302.022 223.284C302.512 220.385 301.809 217.342 301.787 214.396C301.787 214.398 301.788 214.399 301.788 214.4C301.764 214.085 301.739 213.77 301.714 213.456V213.46C301.551 211.358 301.379 209.256 301.204 207.155C300.838 208.746 300.492 210.34 300.159 211.937ZM298.125 244.622C297.673 244.233 297.628 243.554 297.623 242.993C294.324 232.485 298.412 213.886 300.841 202.991C299.446 190.142 298.833 177.192 296.556 164.455C296.434 164.427 296.32 164.359 296.227 164.278C294.065 169.142 287.771 173.445 283.829 167.818C285.91 165.949 288.921 164.816 289.904 161.968C290.452 160.539 289.355 158.748 287.785 158.743C285.331 158.895 283.752 161.246 282.272 162.951C282.288 162.929 282.304 162.908 282.319 162.886C281.9 163.362 281.573 163.961 281.049 164.321C279.678 162.305 278.346 160.25 277.266 158.062C278.775 156.497 280.884 155.544 282.112 153.712C282.941 152.44 281.86 150.661 280.34 150.86C278.43 151.318 276.753 152.683 275.477 154.14C273.953 150.401 272.835 146.516 272.016 142.565C273.623 142.808 274.916 141.492 276.355 140.991C286.991 135.517 275.652 129.602 271.215 138.007C270.641 134.168 270.49 130.273 270.606 126.397C272.838 125.185 275.106 123.434 275.772 120.867C276.188 118.101 272.864 117.744 271.147 119.139C272.988 103.06 285.997 92.3929 297.116 109.011C294.931 109.377 290.354 111.781 292.359 114.387C294.486 115.511 297.229 113.737 299.575 113.869C300.802 116.533 301.83 119.294 302.64 122.113C292.182 123.78 294.068 133.489 304.069 127.485C305.138 131.446 305.677 135.518 306.057 139.595C299.129 138.554 298.646 145.065 306.302 143.244C306.33 145.203 306.318 147.167 306.155 149.121C306.064 149.111 305.972 149.101 305.881 149.091C305.952 149.1 306.024 149.107 306.094 149.116C299.162 148.087 295.691 157.038 304.777 155.958C303.489 158.921 302.322 164.426 298.334 164.356C300.431 175.239 300.968 186.326 302.218 197.32C306.285 180.241 311.605 163.48 316.922 146.759C316.902 146.817 316.882 146.876 316.862 146.934C318.806 141.368 320.624 135.757 322.75 130.257C320.349 129.683 319.497 127.11 318.464 125.155C316.109 120.008 316.612 114.004 318.121 108.685C323.49 114.397 329.991 108.849 320.123 102.927C320.613 101.661 321.105 100.389 321.668 99.1521C321.646 99.2018 321.623 99.2515 321.6 99.3012C321.759 98.9532 321.919 98.6052 322.078 98.2572C322.071 98.272 322.065 98.2879 322.057 98.3027C322.588 97.1446 323.242 96.0421 323.898 94.9508C324.003 94.9921 324.111 95.0313 324.219 95.0693C325.753 97.0781 327.437 99.2123 329.637 100.516C331.759 101.821 334.982 100.448 334.537 97.7197C333.578 94.1579 329.494 92.6126 326.951 90.2684C329.45 87.0168 332.26 83.9946 335.25 81.1891C335.636 81.5148 336.062 81.7959 336.453 82.1178C336.994 84.0518 338.14 86.5612 340.456 86.6014C341.93 86.6294 342.906 85.0832 342.566 83.7212C342.067 81.4478 340.175 79.8614 338.872 78.036C345.238 73.2364 352.579 67.9341 360.936 68.4764C372.753 68.8148 377.996 82.0008 374.353 92.0813C365.751 79.5754 363.447 94.4142 371.835 98.5544C370.094 101.817 368.095 104.955 365.633 107.722C364.366 105.992 361.439 101.597 359.915 105.579C359.753 107.75 361.353 109.546 362.416 111.299C361.724 112.016 361 112.698 360.29 113.397C361.109 113.012 361.938 112.659 362.775 112.309C362.792 113.505 363.686 114.42 363.995 115.546C364.63 117.036 365.012 118.704 366.157 119.906C367.179 121.068 369.574 122.174 370.484 120.33C371.174 118.637 368.347 112.582 367.427 110.722C383.687 105.944 391.964 119.614 383.844 133.414C377.112 129.415 370.057 138.053 377.176 142.766C375.595 144.643 373.742 146.251 371.898 147.861C371.86 147.823 371.821 147.784 371.782 147.745C371.51 145.144 370.189 142.716 368.423 140.825C366.656 139.392 364.702 141.686 365.688 143.478C366.697 145.812 367.941 148.05 368.57 150.526C367.297 151.446 366.006 152.347 364.664 153.161C363.281 150.201 359.214 143.594 355.725 147.542C354.694 150.742 357.212 153.808 358.531 156.557C357.203 157.209 355.875 157.864 354.534 158.488C354.551 158.481 354.568 158.472 354.586 158.465C354.407 158.548 354.228 158.631 354.05 158.714C354.052 158.713 354.054 158.713 354.056 158.712C350.474 160.351 346.751 162.083 342.727 161.92C342.109 162.061 341.335 162.05 341.192 161.287C338.213 161.431 334.862 160.679 332.807 158.382C325.736 168.499 320.844 180.001 316.225 191.396C320.944 184.088 326.453 177.177 333.132 171.567C333.105 171.589 333.077 171.611 333.05 171.633C336.928 168.516 341.474 166.055 346.447 165.334C352.182 158.766 361.733 159.038 369.534 160.975C366.843 164.177 368.977 168.938 373.204 168.859C375.462 168.781 377.52 167.713 379.561 166.843C382.496 170.184 384.745 174.095 385.86 178.415C383.672 178.795 381.457 179.286 379.59 180.552C376.451 182.197 374.528 186.988 378.74 188.608C381.746 189.936 384.839 187.967 387.877 188.505C388.184 192.061 387.893 195.663 387.252 199.169C385.533 199.436 383.815 198.631 382.113 199.238C375.76 200.741 378.486 209.919 384.711 207.898C381.535 216.064 372.287 221.807 363.55 219.87C364.382 214.944 358.385 209.379 354.481 214.154C352.778 212.233 351.279 210.123 349.938 207.938C352.309 206.762 355.176 205.865 356.691 203.552C358.191 201.296 355.596 198.96 353.31 199.214C350.915 199.314 348.853 200.658 346.87 201.872C345.816 199.427 345.002 196.888 344.393 194.298C358.931 189.29 355.172 177.515 342.944 184.232C342.91 179.641 343.595 175.015 345.29 170.733C343.846 170.986 344.151 168.189 344.713 167.436C334.239 170.393 327.219 179.674 321.034 188.062C318.166 191.985 315.637 196.161 313.373 200.459C311.455 206.64 309.667 212.863 308.771 219.287C308.772 219.273 308.775 219.258 308.777 219.245C308.772 219.281 308.765 219.318 308.761 219.354V219.349C308.742 219.459 308.727 219.571 308.708 219.684C308.708 219.682 308.709 219.68 308.709 219.679C308.551 220.673 308.399 221.666 308.241 222.659V222.657L308.237 222.673C308.238 222.669 308.238 222.666 308.239 222.663C308.238 222.675 308.236 222.687 308.234 222.699C308.234 222.696 308.235 222.693 308.235 222.689C308.224 222.762 308.213 222.833 308.202 222.906V222.904C307.394 227.83 306.958 232.811 306.898 237.803V237.772C306.722 239.601 307.316 241.676 306.431 243.351C304.349 244.989 305.182 239.787 305.136 238.843V239.143C305.16 229.59 306.533 220.093 308.39 210.739C306.822 214.706 305.198 218.666 304.097 222.795C304.274 227.833 304.489 232.87 304.534 237.91C304.355 239.427 305.045 241.427 303.838 242.605C302.02 242.897 302.945 239.398 302.785 238.329C302.768 235.167 302.61 232.013 302.501 228.855C302.139 230.21 301.744 231.556 301.393 232.914C301.413 232.831 301.433 232.747 301.453 232.664C300.695 235.827 299.941 238.995 299.397 242.205C299.237 242.926 299.301 245.056 298.125 244.622Z" fill="#205B43"/>
<path d="M110.17 98.9562C109.418 98.1489 110.153 96.7843 110.13 95.7895C110.432 93.0899 110.941 90.4154 111.082 87.6991C111.08 87.7255 111.078 87.7519 111.077 87.7784C111.137 86.9206 111.178 86.0628 111.181 85.2029C111.181 85.223 111.18 85.2431 111.18 85.2632C111.905 80.8157 111.548 99.7066 110.17 98.9562Z" fill="#205B43"/>
<path d="M120.932 98.0098C119.935 96.6062 123.862 90.0473 124.221 87.677C124.443 86.8784 125.39 84.7682 125.657 86.7707C125.612 87.8606 124.919 88.8299 124.548 89.839C124.565 89.803 124.581 89.7671 124.598 89.7311C123.684 91.8239 122.732 93.8971 121.739 95.9536L121.771 95.8838C121.292 96.3877 121.484 97.9504 120.932 98.0098Z" fill="#205B43"/>
<path d="M120.827 113.387C119.237 111.081 125.214 107.44 126.756 106.008C127.431 105.66 128.514 104.209 129.21 104.504C130.262 106.458 127.357 107.249 126.222 108.271C124.692 109.269 123.18 110.334 121.983 111.729L121.985 111.726C121.463 112.168 121.375 113.056 120.827 113.387Z" fill="#205B43"/>
<path d="M196.662 360.744C185.806 360.74 175.26 358.09 164.629 356.251C157.314 354.923 149.874 355.017 142.492 354.376C131.644 353.346 120.791 352.414 109.904 351.905C98.4118 350.921 86.7693 351.229 75.3823 349.319C70.106 348.819 64.54 348.662 59.742 346.172C53.6239 343.51 53.6438 335.171 48.2216 331.877C48.2448 331.89 48.2691 331.904 48.2924 331.917C42.0532 328.694 34.6608 329.834 27.8883 329.013C19.8232 327.913 10.3408 327.959 4.02738 322.155C-0.114798 318.291 0.0402491 311.184 3.91125 307.189C7.9127 302.866 14.1314 302.111 19.6646 301.307C30.5732 299.633 41.6717 301.768 52.592 299.963C52.5666 299.967 52.5412 299.97 52.5158 299.974C55.0326 299.846 57.8494 298.681 60.2551 299.681C64.0505 304.15 63.9155 310.855 67.4834 315.42C67.4717 315.408 67.4601 315.396 67.4474 315.386C72.1565 318.585 75.3327 312.663 76.1087 308.682C76.9796 305.153 76.1004 301.549 76.2748 297.991C76.3268 297.353 76.6434 296.649 77.4048 296.827C80.208 296.77 82.9789 297.253 85.7795 297.275C102.87 298.167 119.977 297.852 137.074 297.52C144.146 297.684 151.214 298.134 158.29 297.859C163.777 297.716 169.266 297.248 174.753 297.58C191.505 297.405 208.28 295.605 225.038 296.534C226.226 296.441 226.608 297.664 226.271 298.651C225.996 300.971 225.9 303.312 225.44 305.609C225.086 308.045 225.196 310.521 224.892 312.962C225.051 313.954 223.725 315.889 225.041 316.317C225.021 316.312 225.002 316.308 224.982 316.305C235.162 315.876 237.35 303.572 240.103 295.813C240.077 295.837 240.052 295.862 240.026 295.887C238.063 300.794 238.042 294.248 240.258 293.701C240.232 293.704 240.206 293.707 240.181 293.71C240.27 293.696 240.355 293.66 240.436 293.624L240.434 293.625C247.928 288.434 257.974 288.205 266.768 287.005C282.644 284.934 298.648 285.249 314.615 285.583C328.026 286.217 355.96 283.419 355.245 303.1C354.689 312.466 352.537 322.493 345.854 329.471C338.934 337.179 328.787 340.551 318.756 341.759C307.312 343.631 295.722 344.136 284.168 344.921C272.346 345.722 260.453 347.043 249.096 350.56C240.518 352.91 231.847 354.939 223.192 356.987C214.463 358.873 205.643 360.894 196.662 360.744Z" fill="#BBE8D6"/>
<path d="M222.623 61.569C225.79 61.5683 228.943 61.1581 232.115 61.2115C229.769 57.1513 226.172 53.7441 222.277 51.1782C221.665 54.6354 223.174 58.1432 221.741 61.5415C222.035 61.5188 222.33 61.5535 222.623 61.569ZM238.956 61.7721C239.585 61.8313 240.213 61.8927 240.841 61.9636C241.1 61.0948 241.384 60.2302 241.577 59.3405C241.569 59.3711 241.561 59.4008 241.553 59.4314C243.618 52.1694 240.687 44.7911 241.191 37.4323V37.6153C241.207 36.2353 241.264 34.8504 241.517 33.4913C241.516 33.4923 241.516 33.4934 241.516 33.4944C241.516 33.4923 241.516 33.4902 241.517 33.4892C241.519 33.4825 241.519 33.4741 241.521 33.468V33.4659C241.523 33.458 241.523 33.4472 241.525 33.4384V33.4394C241.525 33.4384 241.525 33.4373 241.526 33.4363V33.4342C241.53 33.4063 241.535 33.3768 241.54 33.3495L241.537 33.3654C241.556 32.4073 242.459 30.101 241.504 29.5904C239.479 29.2919 239.789 32.237 239.539 33.5747C238.967 38.3355 240.915 42.8751 240.778 47.6222H240.777C240.778 47.6264 240.778 47.6306 240.778 47.6349V47.6243C240.782 47.6892 240.789 47.754 240.792 47.8189V47.8115C240.793 47.8193 240.793 47.8259 240.794 47.8327H240.793C240.829 48.279 240.863 48.7254 240.898 49.1728C240.895 49.1379 240.892 49.103 240.889 49.068C241.24 52.7201 240.741 56.418 239.619 59.9021C239.631 59.8693 239.642 59.8355 239.654 59.8016C239.533 60.1589 239.425 60.5223 239.299 60.8773L239.303 60.8678C239.198 61.1756 239.077 61.4728 238.956 61.7721ZM199.365 63.5946C199.35 63.658 199.336 63.7225 199.324 63.7871C200.078 64.0928 200.842 64.3736 201.634 64.5623C201.763 64.0844 201.853 63.5962 201.954 63.1122C201.411 62.9061 200.887 62.5005 200.784 61.8959C200.263 62.1363 199.888 62.5623 199.61 63.0562C199.617 63.0456 199.623 63.035 199.628 63.0255C199.549 63.1616 199.467 63.2973 199.41 63.4454C199.415 63.4338 199.418 63.4211 199.422 63.4084C199.402 63.4708 199.383 63.5321 199.365 63.5946ZM204.677 65.1843C204.642 64.3216 204.566 63.4259 204.224 62.6257C204.405 63.974 202.997 63.3853 202.225 63.2106C202.219 63.2855 202.196 63.3824 202.12 63.3862C202.064 63.7913 202.005 64.1964 201.964 64.6046V64.5972L201.96 64.6396C202.404 64.74 202.851 64.8289 203.294 64.922C203.286 64.9199 203.276 64.9177 203.268 64.9156C203.737 65.0076 204.206 65.0975 204.677 65.1843ZM202.641 60.7271C204.849 60.953 205.14 63.4879 205.175 65.2742C208.239 65.8095 211.397 65.9862 214.5 65.747C214.468 65.7512 214.435 65.7554 214.403 65.7597C214.779 65.71 215.155 65.6655 215.53 65.6073C215.686 65.4416 215.936 65.3858 216.104 65.5026C221.314 64.2211 221.996 57.9191 221.145 53.4936C221.239 51.0659 221.617 48.6335 221.492 46.2006C216.206 49.7928 221.275 50.5478 213.486 48.6503C213.517 48.6566 213.549 48.6629 213.579 48.6693C211.188 48.1985 208.82 47.619 206.408 47.252C206.12 47.9488 205.461 47.7632 205.3 47.0901C204.682 46.6087 204.773 45.5027 205.171 44.8954C205.076 44.5358 204.984 44.1762 204.896 43.8155C204.907 43.8589 204.918 43.9022 204.929 43.9456C204.774 43.3417 204.604 42.7366 204.414 42.1422V42.1433C204.326 41.8982 204.209 41.6599 204.079 41.4336C203.794 41.466 203.556 41.7019 203.294 41.8154C203.264 41.9159 203.212 42.01 203.128 41.9962C202.625 42.5836 202.142 43.1837 201.76 43.8589C201.769 43.8451 201.779 43.8293 201.787 43.8155C199.646 46.7962 198.205 50.1598 196.556 53.4205C196.574 53.3803 196.592 53.3412 196.61 53.301C194.47 57.1632 194.371 61.8912 199.1 63.6929C199.238 61.9774 200.924 60.55 202.641 60.7271ZM184.887 88.495C184.997 88.5455 185.108 88.591 185.228 88.6124C185.491 88.1316 185.716 86.1499 186.279 86.2694C186.552 86.6671 186.276 87.1226 186.192 87.5335L186.195 87.5208C186.15 87.7133 186.103 87.9048 186.057 88.0973C186.063 88.0687 186.071 88.0401 186.077 88.0116C186.036 88.184 185.994 88.3564 185.954 88.5299C187.043 88.023 187.157 86.6728 187.597 85.6847C188.841 82.9765 189.96 80.2068 190.821 77.3489C192.401 72.9928 194.713 68.9442 197.151 65.0246C196.2 64.333 195.408 63.4323 194.855 62.3941C192.598 67.9629 183.1 83.0566 184.363 88.0412C184.421 87.8286 184.484 87.6206 184.532 87.4066L184.528 87.4214C184.761 86.7274 184.799 85.8198 185.322 85.2901C185.639 85.317 185.591 85.9756 185.369 86.1173C185.168 86.8662 184.973 87.6245 184.884 88.3955C184.884 88.3872 184.885 88.378 184.885 88.3691C184.884 88.3903 184.882 88.4114 184.881 88.4326C184.88 88.4435 184.879 88.4545 184.878 88.4654C184.879 88.4558 184.88 88.4453 184.881 88.4347C184.884 88.4548 184.885 88.4749 184.887 88.495ZM210.074 95.4346C210.075 95.479 210.076 95.5234 210.077 95.5678C210.808 94.2212 210.689 92.4072 211.166 90.9139C211.164 90.9224 211.161 90.9319 211.158 90.9414C211.919 86.8736 212.486 82.7684 213.273 78.7006C213.273 78.7049 213.272 78.7091 213.272 78.7133C213.292 78.5843 213.312 78.4563 213.332 78.3273C213.331 78.3336 213.33 78.3389 213.329 78.3442C213.333 78.3184 213.338 78.2967 213.34 78.2712V78.2723C213.66 76.2481 214.13 74.251 214.442 72.2243C214.432 72.2952 214.42 72.365 214.41 72.4359C214.67 70.9944 214.868 69.5449 214.982 68.0834C213.921 68.3683 212.814 68.4443 211.718 68.4557C211.119 70.1295 210.721 71.8668 210.273 73.5856C210.281 73.5507 210.291 73.5147 210.299 73.4798C209.304 78.3909 208.556 83.3738 208.038 88.3596C208.039 88.3522 208.039 88.3448 208.04 88.3374C207.917 90.2701 207.721 92.2956 208.508 94.1209C208.532 93.8563 208.552 93.5915 208.573 93.3265V93.3308C208.584 93.1866 208.595 93.0424 208.61 92.8982C208.61 92.9056 208.609 92.9141 208.609 92.9214C208.625 92.4056 209.067 92.4357 209.038 92.9437V92.9151C209.052 93.5834 208.936 94.2512 208.916 94.9194C209.108 95.1974 209.393 95.4304 209.718 95.534C209.723 95.4864 209.727 95.4388 209.731 95.3912C209.731 95.3996 209.73 95.4092 209.73 95.4176C209.732 95.3922 209.735 95.3669 209.736 95.3415V95.3478C209.74 95.2949 209.744 95.2421 209.748 95.1892C209.746 95.2082 209.745 95.2273 209.743 95.2463C209.848 94.6463 209.72 93.8105 210.122 93.3477C210.3 93.415 210.27 93.7457 210.168 93.8745C210.065 94.3753 210.078 94.8902 210.075 95.3986V95.3404C210.075 95.3722 210.075 95.4028 210.074 95.4346ZM96.1617 119.186C96.1226 119.202 96.0845 119.218 96.0464 119.235C96.6414 119.367 97.1642 119.699 97.6869 119.998C97.5885 119.537 97.487 119.078 97.3918 118.618C97.1305 118.71 96.9097 118.884 96.6577 118.994L96.7244 118.962C96.5403 119.049 96.3499 119.109 96.1617 119.186ZM99.0936 134.268C100.193 134.79 99.7057 136.829 98.5278 137.039C98.5295 137.172 98.5243 137.29 98.5098 137.423C99.6069 137.698 100.756 137.407 101.872 137.394C101.107 134.559 100.321 131.733 99.723 128.856C99.7377 128.914 99.7526 128.971 99.7674 129.029C99.4269 127.667 99.1637 126.289 98.7837 124.936C97.5776 124.918 96.1848 124.897 95.2394 125.763C96.019 126.927 98.5924 126.109 98.2306 127.957C98.1647 129.33 96.0329 128.962 95.5842 130.091C95.9629 130.658 96.7425 130.684 97.3484 130.842C97.3252 130.837 97.3008 130.832 97.2765 130.826C98.6446 130.856 99.3551 131.46 98.6843 132.827C98.1168 133.251 97.2882 133.242 96.7138 133.713C96.736 133.695 96.7593 133.676 96.7815 133.657C96.6812 133.731 96.5785 133.825 96.5774 133.958C97.3262 134.434 98.2522 134.3 99.0936 134.268ZM95.2796 216.37L95.2827 216.353C95.0638 216.33 94.8459 216.301 94.6301 216.27C94.8459 216.304 95.0627 216.337 95.2796 216.37ZM100.626 204.479C99.0019 208.39 98.2359 212.593 96.8598 216.596C108.797 218.052 120.843 218.57 132.861 218.822C121.952 215.017 110.846 211 102.089 203.195C101.766 203.376 101.448 203.566 101.122 203.74C101.088 203.882 100.999 204.037 100.852 204.044C100.771 204.185 100.698 204.331 100.626 204.479ZM102.983 199.607C111.547 207.317 122.397 211.424 133.211 214.903C141.866 217.596 150.181 221.319 158.987 223.527C159.159 219.735 159.023 215.932 159.214 212.138C159.501 207.834 160.274 203.567 160.14 199.237C160.14 199.266 160.14 199.295 160.139 199.324C160.159 198.448 159.992 197.581 159.969 196.707C147.625 195.686 135.339 194.028 122.951 193.521C120.104 193.337 117.251 193.41 114.405 193.527C113.974 193.485 113.409 193.712 113.174 193.214C105.126 197.395 96.4769 200.87 89.5024 206.786C92.9984 205.503 96.2878 203.678 99.4099 201.659C99.5477 201.28 99.9547 200.73 100.391 201.051C101.196 200.817 102.422 199.164 102.983 199.607ZM143.052 261.724C155.439 261.978 167.822 261.767 180.211 261.767C196.15 261.706 212.126 262.085 228.037 260.979C227.992 260.985 227.945 260.99 227.9 260.997C228.066 260.976 228.232 260.954 228.399 260.933C228.352 260.939 228.307 260.945 228.261 260.95C228.731 260.89 229.194 260.8 229.663 260.738C229.875 259.967 230.132 259.208 230.312 258.429V258.43C232.16 247.687 232.682 236.741 233.882 225.91C227.323 228.383 220.456 229.895 213.513 230.793C213.512 230.794 213.51 230.794 213.508 230.794C213.505 230.794 213.502 230.795 213.499 230.795H213.5C203.37 232.274 193.126 231.444 182.946 231.069C168.357 230.792 154.123 227.196 140.694 221.618C140.395 221.692 140.105 221.801 139.827 221.931C139.861 221.916 139.893 221.9 139.927 221.884C130.028 222.739 119.942 221.687 110.039 220.852C96.512 219.816 82.6203 218.036 70.322 211.975C71.5674 226.177 71.3577 240.496 72.0831 254.74C82.4054 260.56 94.9218 260.404 106.453 261.229C118.647 261.853 130.847 261.874 143.052 261.724ZM55.6961 278.335C56.734 281.577 57.5 285.35 59.5193 288.059C64.606 289.966 70.3804 288.902 75.7278 289.306C92.9643 289.554 110.162 287.858 127.396 288.242C152.389 289.498 177.416 289.002 202.428 288.727C211.349 288.432 220.301 288.887 229.19 287.936C235.28 287.485 241.474 286.731 246.903 283.735C252.858 264.407 256.329 244.43 259.233 224.445C259.214 224.568 259.194 224.691 259.175 224.815C261.818 207.293 265.694 189.938 267.582 172.312L267.579 172.362C267.582 172.316 267.587 172.271 267.59 172.224V172.227C267.593 172.174 267.598 172.119 267.603 172.066C267.6 172.089 267.598 172.113 267.596 172.136C267.9 166.896 268.438 161.681 269.007 156.465C269.106 151.633 270.521 144.793 264.824 142.652C259.721 140.317 253.77 140.173 248.375 141.509C240.993 142.9 239.511 151.887 237.005 157.801C234.838 163.343 232.18 168.793 231.515 174.784C233.646 175.695 235.796 176.555 237.918 177.486C238.629 172.206 239.424 166.944 240.412 161.706C240.699 161.093 241.242 154.65 241.94 155.768C240.634 163.088 240.01 170.702 239.439 178.173C250.029 182.819 260.419 193.616 257.151 206.021C254.005 215.733 244.432 221.555 235.472 225.264C234.429 233.744 233.545 242.259 232.73 250.768C232.346 254.537 232.006 258.335 230.91 261.979C230.913 263.946 229.112 264.415 227.476 264.574C208.469 266.222 189.349 265.524 170.29 265.618C152.772 265.644 135.233 265.454 117.731 264.717C105.585 263.884 93.2187 264.072 81.3253 261.224C81.3623 261.232 81.4004 261.24 81.4374 261.247C77.8685 260.606 74.4597 259.384 71.2307 257.797C69.8344 256.393 70.5368 253.873 70.3326 252.044C70.3326 252.137 70.3315 252.232 70.3315 252.326C69.6685 238.75 70.223 225.122 69.5118 211.567C61.9997 207.303 53.8154 202.755 49.6375 194.85C45.6044 187.483 44.515 178.245 47.1539 170.236C49.7902 164.282 55.8517 160.555 61.6224 158.057C60.964 153.495 60.9955 148.493 58.8865 144.329C58.5153 143.47 57.1432 143.145 57.1978 142.167C57.217 141.993 57.3388 141.759 57.5048 141.895C61.74 143.91 61.88 151.17 62.88 155.288H62.8789C62.8805 155.29 62.8799 155.292 62.88 155.294C63.0054 156.02 63.102 156.754 63.2544 157.475C77.8623 153.185 93.5075 154.038 108.14 157.758C108.102 157.75 108.065 157.742 108.027 157.734C108.234 157.778 108.441 157.821 108.648 157.863C108.851 155.34 109.131 152.824 109.394 150.307C109.389 150.37 109.384 150.432 109.38 150.493C109.607 147.719 109.756 144.934 110.051 142.168C110.087 141.979 110.179 141.511 110.449 141.521C110.855 141.634 110.779 142.261 110.708 142.594C110.52 147.795 110.355 153.002 110.324 158.208C110.93 158.333 111.535 158.458 112.14 158.587C112.103 158.578 112.066 158.571 112.028 158.562C119.442 160.334 126.68 162.79 134.172 164.266C127.287 157.768 120.91 150.683 115.348 143.017C115.378 143.06 115.409 143.103 115.438 143.145C114.539 141.85 113.572 140.606 112.574 139.386C112.357 140.05 111.731 139.824 111.212 139.973C111.249 139.969 111.286 139.964 111.324 139.96C109.491 140.302 107.643 140.55 105.801 140.831H105.805C104.877 140.769 103.34 141.78 102.814 140.689C102.674 140.815 102.494 140.878 102.316 140.806C101.441 140.419 100.457 140.5 99.5463 140.25H99.5484C98.5814 140.042 97.5108 139.575 97.1506 138.576C88.7174 140.349 72.1792 139.513 65.593 133.499C65.1503 134.762 62.1557 135.741 60.9076 136.266C57.2454 137.546 53.5513 138.739 50.1241 140.586C50.1749 140.562 50.2246 140.539 50.2743 140.516C46.3229 142.715 42.1445 144.575 38.3528 147.038C36.3311 148.549 37.0417 151.421 36.818 153.625C37.0533 166.082 38.7935 178.45 40.663 190.748C42.5744 205.122 45.6993 219.296 47.6523 233.664C49.2966 247.261 51.2004 260.857 54.5644 274.153C54.5432 274.067 54.521 273.981 54.4998 273.895C54.8795 275.38 55.2773 276.859 55.6961 278.335ZM236.5 293.461C236.57 293.186 236.649 292.915 236.712 292.64C236.639 292.923 236.57 293.196 236.5 293.461ZM70.2194 311.775C65.8293 308.246 65.4705 297.978 64.9277 292.611C62.4545 292.375 58.9247 292.52 57.5321 290.084C55.5719 285.988 54.2885 281.647 53.1895 277.252C48.7445 260.111 47.3759 242.422 44.6539 224.979C40.9733 203.353 36.4723 181.807 34.5102 159.934C34.5213 153.924 32.3176 144.38 38.9861 141.246C47.2355 137.487 55.6891 134.144 64.3925 131.624C60.9515 121.17 72.0541 110.024 78.4906 102.845C76.3402 101.018 66.7541 97.1823 68.1354 93.9782C68.8782 94.2323 69.2165 95.4888 69.9202 95.9907C72.9138 98.3846 76.8356 99.2301 80.1216 101.164C85.0668 95.9645 90.2725 91.0281 95.5017 86.1162C95.0859 84.4325 93.5024 81.8161 94.1147 80.2237C94.2536 80.229 94.2705 80.4818 94.2663 80.5749C94.2622 81.2693 94.5505 81.9285 94.7602 82.5803C94.7539 82.5655 94.7486 82.5496 94.7422 82.5338C95.1357 83.5819 95.5778 84.6111 96.0252 85.6381C100.654 81.2347 105.689 77.2816 111.14 73.9442C114.166 72.3546 117.01 69.8497 120.407 69.2289C121.903 69.0015 116.42 72.6384 116.073 72.9552C109.467 77.6142 102.825 82.2373 96.9899 87.8667C97.409 88.4329 102.474 102.899 99.9207 100.326C98.5626 96.4149 97.7435 92.3399 96.3362 88.4442C91.4385 92.8435 86.6855 97.4033 82.0953 102.122C84.1037 103.08 85.8324 104.505 87.6282 105.798C88.1875 106.371 88.1709 107.947 87.3586 108.252C84.9825 106.914 82.7625 105.214 80.3289 103.934C73.0883 111.497 53.1509 132.115 73.5374 135.79H73.5364C73.5385 135.79 73.5395 135.791 73.5416 135.791H73.5406C78.8747 136.743 84.3786 136.773 89.7742 136.45C91.9286 136.224 94.0938 135.554 96.2674 135.861C95.2926 134.996 95.5693 133.365 96.0876 132.313C94.4091 131.557 94.388 128.95 95.7746 127.9C92.4599 125.864 95.401 122.613 98.4781 123.655C98.33 123.067 98.2009 122.475 98.0761 121.881C93.9518 120.853 89.5308 121.229 85.3678 120.995C84.5874 120.269 84.6676 117.536 86.1271 117.901C88.9141 118.271 91.7235 118.452 94.5 118.917C95.4069 118.252 96.288 117.559 97.0396 116.717C96.865 115.335 95.7492 113.948 96.6101 112.596C96.8407 112.174 97.3243 112.455 97.6985 112.344H97.6975C106.821 110.383 106.426 112.433 113.743 105.833C113.742 105.833 113.742 105.834 113.741 105.834C113.746 105.829 113.752 105.824 113.758 105.82C113.756 105.822 113.752 105.824 113.75 105.826C116.602 103.231 119.69 100.912 122.745 98.5792C124.405 96.9696 124.711 100.883 124.141 101.828C123.977 102.318 123.618 102.724 123.085 102.778C119.088 105.034 115.444 107.867 111.398 110.039C112.257 110.748 112.143 112.244 112.529 113.257C113.395 116.799 114.165 120.378 114.954 123.935C115.129 124.026 115.3 124.123 115.465 124.232C114.734 121.894 116.049 117.037 118.237 121.25C119.623 124.292 119.934 127.91 122.702 130.152C127.423 133.703 133.311 135.48 138.531 138.217C146.614 142.112 154.976 145.43 163.881 146.848C163.841 146.84 163.801 146.831 163.76 146.823C165.85 147.261 167.925 147.77 170.012 148.225C169.969 148.216 169.928 148.207 169.886 148.198C171.297 148.569 172.823 148.647 174.13 149.331C175.397 145.928 176.83 142.589 178.334 139.285C178.302 139.352 178.271 139.42 178.24 139.488C184.746 125.423 188.723 110.212 196.255 96.6412C196.481 96.2683 196.974 94.9761 197.35 95.8343C197.528 98.4577 195.847 100.867 194.977 103.269C193.377 106.807 192.171 110.501 190.657 114.074C186.281 125.878 181.536 137.538 176.186 148.935C176.215 148.874 176.242 148.813 176.271 148.751C175.615 149.606 175.128 153.718 173.634 152.54C163.988 149.674 153.803 148.26 144.675 143.759C139.934 141.617 135.181 139.503 130.471 137.293C127.235 135.667 123.589 134.486 121.238 131.577C118.353 128.92 118.998 124.078 116.371 121.569C115.294 123.777 118.743 126.155 117.797 128.621C117.713 128.996 117.313 129.726 116.84 129.357V129.364C116.174 128.758 116.281 127.745 115.815 127.039C114.575 125.697 112.715 124.742 110.875 124.677C112.088 126.263 113.816 127.374 115.016 128.983C115.016 128.984 115.017 128.984 115.018 128.985H115.017C115.436 129.382 115.438 130.75 114.734 130.779C113.231 129.529 111.699 128.242 109.751 127.757C111.156 129.217 115.051 130.893 113.194 133.307C113.01 133.433 112.811 133.357 112.641 133.248C111.464 132.299 110.086 131.706 108.625 131.345C119.708 144.501 130.23 158.449 144.073 168.947C151.4 174.749 158.885 182.519 168.87 182.529C180.268 182.838 189.051 175.37 195.717 166.881C202.512 158.546 207.932 149.234 212.62 139.579C218.134 127.665 224.546 116.093 228.226 103.432C228.223 103.44 228.22 103.45 228.217 103.459C228.239 103.392 228.262 103.325 228.286 103.257C228.275 103.286 228.266 103.316 228.255 103.344C229.931 98.8378 230.37 94.0395 230.06 89.2671V89.2703C229.79 84.2031 227.743 79.1858 223.992 75.7391C223.413 75.7109 223.465 74.4721 223.988 74.3102C226.779 75.4115 229.196 79.7144 230.212 82.5145C234.822 97.905 226.214 115.653 219.875 129.557C214.111 142.334 207.907 155.029 199.735 166.461C210.362 167.883 220.968 170.086 230.812 174.503C231.022 167.347 233.756 160.713 235.975 154.015C238.346 146.945 240.811 137.372 249.395 136.083C249.712 133.03 250.218 130.001 250.687 126.968C250.67 127.071 250.654 127.175 250.637 127.279C252.401 117.32 253.109 107.243 254.179 97.1977C254.179 97.1977 254.178 97.1988 254.178 97.1999C254.621 91.6633 254.932 86.1205 255.07 80.5675C255.227 74.182 253.574 67.9606 246.41 66.7553C241.592 65.4128 236.616 64.6898 231.69 63.8694C228.223 63.3752 224.663 63.6534 221.265 62.7092C220.318 64.7336 218.852 66.7607 216.693 67.5747C214.748 76.7569 213.798 86.1905 211.365 95.2812C211.366 95.2738 211.368 95.2664 211.369 95.26C210.169 101.315 206.636 94.9752 206.875 92.0213C206.858 84.0271 208.406 75.9252 211.192 68.4409C206.853 68.3851 202.487 67.5069 198.494 65.7956C196.706 69.7313 194.088 73.3037 192.363 77.3055C192.385 77.2558 192.408 77.2061 192.431 77.1564C192.396 77.2297 192.362 77.3025 192.33 77.3764C192.33 77.3753 192.331 77.3743 192.331 77.3732C192.33 77.3743 192.33 77.3753 192.329 77.3764V77.3785H192.328C192.316 77.4105 192.299 77.442 192.286 77.4727C192.296 77.4494 192.307 77.4272 192.317 77.4039C192.056 77.9822 191.825 78.5692 191.619 79.1692C191.62 79.166 191.621 79.1618 191.624 79.1576C190.656 81.3308 187.75 89.801 185.705 90.1841C185.679 91.1938 184.89 91.1292 184.955 90.1408C178.906 87.4172 192.356 66.1518 194.535 61.7288C192.34 54.9964 198.312 47.5997 201.908 42.288C202.58 41.5056 203.323 40.7572 204.163 40.1749C205.136 40.3531 206.158 43.9407 206.511 44.9398C210.406 45.6077 214.393 46.1691 218.158 47.3652C222.991 41.4418 222.664 45.1688 222.353 50.3161C226.9 51.7447 231.998 56.7895 233.582 61.2697C235.188 61.4158 236.794 61.5675 238.399 61.7203C240.192 55.988 239.797 50.0248 239.076 44.155C238.109 38.9552 237.148 32.4911 239.996 27.7711C243.963 26.5241 242.479 32.4185 242.31 34.6027C242.225 37.8427 242.211 41.1192 242.718 44.3285C242.718 44.3274 242.717 44.3253 242.717 44.3243C243.131 46.9227 243.446 49.53 243.611 52.1566V52.1544C243.613 52.1844 243.616 52.2133 243.618 52.2422L243.617 52.2412C243.618 52.2433 243.618 52.2475 243.618 52.2496V52.2433C243.622 52.2982 243.627 52.3533 243.631 52.4083C243.631 52.4072 243.63 52.4062 243.63 52.4051C243.889 55.706 243.244 58.9838 242.347 62.1465C250.105 62.914 255.473 65.4696 256.414 73.9082C256.399 73.8151 256.383 73.722 256.369 73.629C257.609 83.561 256.184 93.6783 255.344 103.603C254.614 114.367 252.932 125.007 251.474 135.686C257.901 134.947 265.483 136.343 269.458 141.897C271.95 146.457 271.175 151.993 271.059 156.993C269.997 166.33 269.955 175.767 268.299 185.035C268.318 184.911 268.338 184.787 268.357 184.663C266.188 198.638 263.589 212.543 261.292 226.497C259.068 241.474 256.631 256.438 252.701 271.078C252.714 271.026 252.727 270.973 252.74 270.921C251.565 276.084 250.075 281.171 248.334 286.17C247.299 288.403 240.453 289.62 238.011 290.242C235.504 315.142 223.303 321.727 230.753 291.113C216.367 292.531 201.866 292.24 187.424 292.424C167.502 292.751 147.569 293.036 127.657 292.143C108.826 291.658 90.0168 293.62 71.1872 292.873C71.1942 294.385 71.3505 295.887 71.6346 297.373C71.6336 297.372 71.6336 297.371 71.6336 297.37C71.6336 297.371 71.6336 297.372 71.6346 297.373C71.6346 297.377 71.6362 297.382 71.6357 297.386V297.38C71.6367 297.389 71.6389 297.399 71.6399 297.408V297.407C71.6521 297.484 71.6638 297.562 71.6769 297.64C71.6759 297.634 71.6748 297.629 71.6738 297.623C71.8151 300.418 74.6735 311.907 70.2194 311.775Z" fill="#205B43"/>
<path d="M323.764 128.936C322.974 127.045 328.31 118.762 329.413 116.417C329.407 116.427 329.401 116.438 329.396 116.449C329.405 116.431 329.415 116.412 329.425 116.395L329.424 116.397C339.067 99.4458 351.551 83.9922 366.264 71.2763C366.915 71.1395 366.867 72.4304 366.544 72.7537C364.976 74.0922 363.377 75.417 361.836 76.7995C361.853 76.7847 361.869 76.771 361.886 76.7562C349.272 88.2479 338.832 101.936 330.118 116.567C330.129 116.549 330.138 116.531 330.149 116.513C329.623 117.458 329.061 118.381 328.517 119.314C328.526 119.297 328.536 119.28 328.544 119.263C327.667 120.886 326.824 122.529 325.894 124.125C325.898 124.118 325.902 124.111 325.905 124.104C325.897 124.119 325.889 124.134 325.881 124.149L325.885 124.141C325.169 125.545 324.32 126.929 323.904 128.459C323.953 128.599 323.969 128.941 323.764 128.936Z" fill="white"/>
<path d="M343.029 96.4213C342.923 96.379 342.866 96.2678 342.829 96.1646C342.566 95.9353 342.305 95.7038 342.044 95.4715L342.072 95.4969C342.013 95.444 341.953 95.3911 341.893 95.3383L341.921 95.3636C341.359 94.8686 340.823 94.344 340.269 93.8416C340.277 93.849 340.286 93.8553 340.294 93.8628C339.727 93.3636 339.151 92.8727 338.586 92.3696L338.589 92.3725C338.173 92.005 337.782 91.6079 337.37 91.2365L337.389 91.2524C337.289 91.1629 337.187 91.0749 337.088 90.9858L337.098 90.9942C337.092 90.9889 337.086 90.9837 337.08 90.9784L337.081 90.979C336.977 90.8883 336.876 90.797 336.773 90.7064L336.778 90.7097C336.764 90.6976 336.75 90.6855 336.736 90.6738L336.74 90.678C336.735 90.673 336.729 90.6679 336.724 90.6632L336.726 90.6647C336.692 90.6347 336.659 90.6052 336.625 90.5752L336.63 90.5797C336.625 90.5747 336.619 90.5698 336.614 90.5648L336.614 90.5652C336.57 90.5266 336.526 90.488 336.482 90.4485C336.488 90.4538 336.493 90.458 336.498 90.4633C336.489 90.4548 336.48 90.4463 336.47 90.4381L336.473 90.44C335.979 90.0042 335.515 89.5348 335.022 89.0988C335.026 89.1031 335.031 89.1073 335.035 89.1115C334.128 88.1323 332.321 87.4459 332.075 86.0824C332.165 85.926 332.241 86.1439 332.289 86.2219C332.285 86.2145 332.281 86.2081 332.278 86.2018C333.198 87.403 334.58 88.1564 335.644 89.2226C335.639 89.2183 335.634 89.2141 335.63 89.2099C336.429 89.9256 337.294 90.5645 338.099 91.2735L338.094 91.2693C339.717 92.5958 341.29 93.9923 342.943 95.2778C343.473 94.9841 343.523 96.462 343.029 96.4213Z" fill="white"/>
<path d="M354.978 82.3702C352.818 79.7352 350.648 77.1238 348.253 74.6881L348.255 74.6913C348.24 74.672 348.225 74.6527 348.21 74.6334L348.211 74.6352C348.207 74.6293 348.202 74.6232 348.198 74.6172C348.2 74.6203 348.202 74.6231 348.204 74.6259C348.046 74.5224 347.954 74.1831 348.157 74.0894C348.387 74.2884 348.548 74.6002 348.816 74.7823L348.812 74.779C348.886 74.8439 348.961 74.9078 349.035 74.9734L349.031 74.9705L349.04 74.9782L349.037 74.9754C349.056 74.9924 349.076 75.0096 349.095 75.0271L349.088 75.0212C351.339 77.0068 353.201 79.3298 355.143 81.5938C355.138 81.5896 355.133 81.5853 355.128 81.5811C355.357 81.7268 355.341 82.5546 354.978 82.3702Z" fill="white"/>
<path d="M366.913 98.9268C364.628 96.6257 362.488 94.1883 360.101 91.9894C360.111 91.9989 360.122 92.0084 360.133 92.0179C357.727 89.908 355.341 87.7492 353.303 85.2734C353.031 85.2504 352.993 84.634 353.246 84.5442C354.352 85.4808 355.337 86.694 356.453 87.6729C356.446 87.6666 356.439 87.6608 356.432 87.6547C357.431 88.4906 358.377 89.3855 359.328 90.2738L359.327 90.2725C359.894 90.7863 368.861 99.1603 366.913 98.9268Z" fill="white"/>
<path d="M349.62 94.9622C348.905 94.1411 348.182 93.3242 347.485 92.4871C347.493 92.4935 347.5 92.4998 347.507 92.5072C347.485 92.4783 347.455 92.4606 347.421 92.4554L347.423 92.4557C347.248 92.3606 347.245 91.9409 347.431 91.8574L347.421 91.8589C348.264 92.2902 348.854 93.3391 349.677 93.9064C350.035 94.0672 350.12 95.1422 349.62 94.9622Z" fill="white"/>
<path d="M351.271 113.027C347.959 109.351 343.72 106.65 340.012 103.408L340.013 103.409C339.841 103.26 339.665 103.116 339.469 102.997C339.48 103.004 339.491 103.009 339.501 103.014C339.133 102.935 339.103 102.221 339.426 102.086C340.668 102.924 341.816 103.968 343.069 104.826C344.043 105.733 353.479 112.267 351.271 113.027Z" fill="white"/>
<path d="M333.525 110.698C332.32 109.306 330.779 108.263 329.474 106.969L329.476 106.971C328.931 106.512 328.363 106.081 327.832 105.607L327.836 105.61C327.52 105.331 327.221 105.033 326.911 104.747L326.914 104.75C326.602 104.289 325.168 103.82 325.562 103.212C325.618 103.209 325.625 103.281 325.665 103.31L325.66 103.306C326.285 104.019 335.877 110.589 333.525 110.698Z" fill="white"/>
<path d="M333.16 123.584C331.255 122.25 329.271 120.647 327.86 118.88C327.835 118.742 327.978 118.446 328.099 118.674C328.556 119.16 329.157 119.575 329.63 120.077L329.63 120.076C329.637 120.082 329.643 120.088 329.65 120.094L329.646 120.09C329.653 120.096 329.66 120.102 329.667 120.108L329.663 120.105C329.669 120.111 329.676 120.117 329.683 120.123L329.681 120.121C330.8 121.12 331.999 122.027 333.283 122.803C333.483 122.955 333.49 123.655 333.16 123.584Z" fill="white"/>
<path d="M322.011 121.601C321.772 121.016 321.687 119.854 322.407 119.602C323.413 119.729 322.931 122.941 322.011 121.601Z" fill="white"/>
<path d="M321.964 118.409C321.788 118.176 321.962 117.249 322.292 117.723C322.469 117.956 322.295 118.883 321.964 118.409Z" fill="white"/>
<path d="M324.932 116.789C324.753 116.55 324.928 115.602 325.269 116.087C325.448 116.325 325.272 117.273 324.932 116.789Z" fill="white"/>
<path d="M346.893 86.7681C346.663 86.2038 346.581 85.0818 347.275 84.8398C348.245 84.9618 347.78 88.0614 346.893 86.7681Z" fill="white"/>
<path d="M353.518 91.0614C353.421 90.9341 353.515 90.4252 353.698 90.6848C353.795 90.8122 353.699 91.3211 353.518 91.0614Z" fill="white"/>
<path d="M334.326 155.588C333.415 154.603 335.987 153.046 336.511 152.186C338.998 149.507 341.532 146.867 344.261 144.431L344.253 144.438C344.265 144.428 344.277 144.417 344.289 144.407L344.286 144.409C344.425 144.287 344.563 144.164 344.701 144.042C344.697 144.046 344.692 144.05 344.687 144.053C356.298 133.647 369.32 124.817 383.276 117.867C383.264 117.873 383.251 117.88 383.238 117.886C383.658 117.713 384.035 117.366 384.471 117.282C385.096 117.996 384.353 118.464 383.697 118.711C378.032 121.481 372.572 124.67 367.219 128.004C355.133 135.749 344.01 144.931 334.408 155.588V155.587C334.382 155.597 334.354 155.597 334.326 155.588Z" fill="white"/>
<path d="M351.728 138.442C351.053 137.726 350.674 136.766 350.066 135.99L350.071 135.997C348.297 133.821 346.465 131.673 344.498 129.671C344.162 129.31 343.584 128.903 343.667 128.356C343.716 128.138 343.891 128.174 343.936 128.377C346.684 131.269 349.662 134.039 351.769 137.472C352.085 137.565 352.141 138.511 351.728 138.442Z" fill="white"/>
<path d="M362.382 130.62C360.973 128.109 359.414 125.706 357.626 123.439L357.631 123.445C357.557 123.349 357.482 123.252 357.409 123.156L357.411 123.159C356.545 121.857 355.008 120.764 354.59 119.264C356.189 121.035 358.121 123.627 359.799 125.701L359.798 125.7C359.825 125.735 359.852 125.769 359.879 125.804L359.87 125.793C360.58 126.697 361.26 127.626 361.767 128.661C361.759 128.65 361.753 128.637 361.745 128.625C361.989 129.048 362.242 129.467 362.536 129.856L362.53 129.851C362.738 130.007 362.737 130.797 362.382 130.62Z" fill="white"/>
<path d="M357.285 133.299C356.715 132.373 356.121 131.461 355.483 130.579L355.486 130.583C355.219 130.013 351.27 126.244 352.306 126.276C352.303 126.271 352.301 126.267 352.298 126.262C352.404 126.43 352.526 126.587 352.643 126.748C352.639 126.741 352.633 126.735 352.629 126.729C354.27 128.67 356.062 130.472 357.467 132.603L357.442 132.571C357.67 132.72 357.634 133.583 357.285 133.299Z" fill="white"/>
<path d="M362.036 145.578C361.452 144.679 360.842 143.799 360.195 142.945L360.224 142.983C360.18 142.926 360.136 142.869 360.092 142.812C360.101 142.824 360.111 142.836 360.12 142.848C359.717 142.326 359.32 141.799 358.922 141.273C358.93 141.285 358.939 141.295 358.947 141.307C358.936 141.292 358.924 141.276 358.912 141.261C358.921 141.273 358.929 141.284 358.938 141.295C358.871 141.207 358.804 141.12 358.737 141.032C358.745 141.043 358.754 141.054 358.762 141.066C358.741 141.037 358.719 141.01 358.698 140.981C358.704 140.989 358.71 140.997 358.716 141.004C358.707 140.993 358.699 140.983 358.69 140.972L358.693 140.976C358.543 140.783 358.398 140.584 358.249 140.389C358.258 140.399 358.265 140.41 358.274 140.419C357.751 139.76 357.254 139.08 356.745 138.409C356.749 138.414 356.752 138.418 356.756 138.422C356.75 138.414 356.743 138.406 356.737 138.398L356.74 138.403C356.285 137.828 355.825 137.254 355.38 136.67L355.392 136.686C355.189 136.438 354.957 136.215 354.734 135.987C354.737 135.99 354.74 135.993 354.744 135.995C354.559 135.799 354.141 135.692 354.271 135.351C354.296 135.282 354.354 135.236 354.407 135.306C354.948 135.671 355.36 136.194 355.8 136.674C356.414 137.5 364.115 145.74 362.036 145.578Z" fill="white"/>
<path d="M370.29 131.144C369.901 130.744 366.484 126.81 367.883 126.888C368.657 128.078 369.473 129.269 370.508 130.265C370.724 130.46 370.689 131.353 370.29 131.144Z" fill="white"/>
<path d="M345.93 153.804C344.69 151.985 343.391 150.189 342.047 148.437L342.051 148.443C341.919 148.208 341.612 148.049 341.583 147.773C341.554 147.206 341.994 147.576 342.165 147.837C342.65 148.722 347.24 153.356 345.93 153.804Z" fill="white"/>
<path d="M348.699 143.948C348.501 143.311 347.313 142.504 347.673 141.88C347.955 142.557 349.031 143.069 348.918 143.877C348.895 143.983 348.768 144.073 348.699 143.948Z" fill="white"/>
<path d="M346.23 138.983C346.049 138.746 346.226 137.802 346.564 138.283C346.745 138.52 346.568 139.464 346.23 138.983Z" fill="white"/>
<path d="M372.484 214.678C372.082 211.178 370.882 207.824 370.294 204.351C370.3 204.376 370.305 204.402 370.31 204.426C369.572 200.868 368.819 197.306 367.878 193.797C367.881 193.807 367.884 193.817 367.887 193.827C367.803 193.544 367.719 193.262 367.636 192.98L367.64 192.993C367.633 192.97 367.626 192.946 367.619 192.922C367.622 192.932 367.625 192.942 367.628 192.952L367.628 192.952C367.63 192.961 367.633 192.969 367.635 192.978C367.079 191.267 366.454 189.579 365.776 187.911C365.784 187.932 365.793 187.953 365.801 187.974C365.777 187.913 365.751 187.852 365.726 187.791C365.731 187.803 365.736 187.814 365.741 187.826C365.725 187.786 365.708 187.746 365.691 187.706C365.695 187.714 365.698 187.721 365.702 187.729C365.673 187.66 365.645 187.591 365.616 187.522L365.641 187.585C365.6 187.484 365.559 187.383 365.519 187.283C365.527 187.304 365.536 187.325 365.544 187.346C365.44 187.092 365.337 186.841 365.233 186.587C365.242 186.608 365.25 186.628 365.258 186.649C365.238 186.598 365.217 186.547 365.196 186.496L365.2 186.507C365.173 186.442 365.148 186.377 365.121 186.311L365.124 186.319C364.258 184.213 363.185 182.202 362.047 180.232C362.058 180.25 362.067 180.268 362.078 180.286C361.81 179.806 361.544 179.327 361.277 178.847L361.284 178.86C359.634 175.99 357.5 173.354 355.036 171.142L355.046 171.152C354.727 170.872 354.411 170.592 354.094 170.311C354.102 170.318 354.11 170.325 354.119 170.333C352.87 169.172 351.393 168.322 349.878 167.559C349.893 167.566 349.908 167.573 349.923 167.581C349.086 167.165 348.228 166.791 347.355 166.462C346.906 166.682 346.732 165.909 346.848 165.584C347.137 164.635 349.077 166.09 349.72 166.253C349.705 166.246 349.691 166.237 349.676 166.23C349.73 166.258 349.785 166.287 349.839 166.315C349.832 166.311 349.825 166.307 349.818 166.303C349.888 166.34 349.959 166.376 350.029 166.412C350.014 166.405 349.999 166.397 349.984 166.39C355.179 169.018 359.2 173.699 361.997 178.73V178.73C362.121 178.952 362.244 179.175 362.368 179.397C362.357 179.379 362.348 179.361 362.337 179.343C362.364 179.391 362.39 179.439 362.416 179.486C362.407 179.468 362.396 179.45 362.387 179.432C363.551 181.439 364.636 183.493 365.52 185.64L365.507 185.609C365.62 185.883 365.732 186.157 365.846 186.431C365.836 186.41 365.828 186.389 365.819 186.369C366.632 188.335 367.412 190.32 368.059 192.348L368.056 192.339C368.14 192.622 368.224 192.904 368.307 193.186L368.303 193.173C369.211 196.515 369.922 199.91 370.626 203.299C370.621 203.274 370.616 203.249 370.61 203.223C370.665 203.49 370.72 203.755 370.773 204.022C370.772 204.014 370.771 204.006 370.769 203.999C370.818 204.234 370.867 204.471 370.913 204.707L370.909 204.688L370.916 204.723L370.914 204.714C370.916 204.724 370.918 204.735 370.92 204.745L370.919 204.739C371.488 207.86 372.475 210.888 372.929 214.027C372.925 214.008 372.921 213.989 372.917 213.97C373.204 214.416 372.783 215.739 372.484 214.678Z" fill="white"/>
<path d="M348.648 196.272C348.462 196.055 348.426 195.347 348.802 195.343L348.798 195.34C348.819 195.35 348.841 195.353 348.864 195.356C348.856 195.355 348.849 195.353 348.841 195.352C352.335 194.272 355.38 191.771 358.572 189.972C360.584 188.614 363.022 187.661 364.804 186.107C365.289 186.271 365.179 187.466 364.653 187.478C364.167 187.752 363.642 187.942 363.151 188.207L363.154 188.205C363.143 188.211 363.132 188.217 363.122 188.222L363.122 188.222C362.849 188.363 362.573 188.501 362.299 188.64L362.33 188.624C357.687 190.924 353.556 194.331 348.798 196.32L348.804 196.315C348.747 196.336 348.697 196.322 348.648 196.272Z" fill="white"/>
<path d="M362.172 177.745C361.952 177.772 361.935 177.22 362.15 177.297C365.821 176.048 369.264 174.095 372.897 172.712C373.19 172.695 373.173 173.257 373.002 173.4C371.824 173.869 370.69 174.45 369.51 174.921C367.061 175.819 364.72 177.185 362.172 177.745Z" fill="white"/>
<path d="M348.209 176.065C348.661 174.638 353.712 172.647 355.276 171.99C355.564 172.107 355.515 172.783 355.142 172.754C355.152 172.752 355.161 172.75 355.17 172.748C352.76 173.503 350.482 174.689 348.394 176.105C348.351 176.219 348.227 176.166 348.209 176.065Z" fill="white"/>
<path d="M368.532 194.076C368.104 192.943 370.785 192.646 371.534 192.244C371.812 192.243 371.797 192.686 371.756 192.882C371.574 193.366 370.839 193.274 370.424 193.474C369.898 193.463 368.808 194.391 368.532 194.076Z" fill="white"/>
<path d="M363.611 202.158C363.581 201.96 363.78 201.933 363.914 201.859C363.909 201.862 363.903 201.865 363.898 201.868C364.176 201.723 364.452 201.574 364.73 201.43L364.727 201.431C366.136 200.659 367.718 200.171 369.024 199.231C369.312 199.24 369.31 199.95 369.018 199.97C369.028 199.968 369.036 199.967 369.046 199.965C367.763 200.661 366.313 201.057 364.996 201.709L365 201.707C364.928 201.745 364.856 201.783 364.783 201.82L364.785 201.819C364.497 201.872 363.652 202.678 363.611 202.158Z" fill="white"/>
<path d="M367.753 184.001C367.614 183.662 367.565 182.988 367.982 182.842C368.576 182.934 368.29 184.74 367.753 184.001Z" fill="white"/>
<path d="M370.714 181.878C370.619 181.649 370.587 181.195 370.868 181.096C371.268 181.159 371.075 182.376 370.714 181.878Z" fill="white"/>
<path d="M371.373 187.954C371.078 187.234 370.975 185.803 371.859 185.493C373.097 185.649 372.505 189.603 371.373 187.954Z" fill="white"/>
<path d="M376.887 192.457C376.599 191.75 376.497 190.346 377.365 190.042C378.58 190.195 377.999 194.077 376.887 192.457Z" fill="white"/>
<path d="M297.035 161.646C295.227 151.231 292.717 140.874 289.833 130.688L289.837 130.703C289.628 130.001 289.424 129.296 289.212 128.595C289.219 128.616 289.225 128.637 289.231 128.657C289.152 128.393 289.074 128.129 288.997 127.864L288.998 127.868C288.993 127.848 288.986 127.827 288.981 127.807L288.982 127.813C288.911 127.571 288.84 127.328 288.769 127.086L288.772 127.095C288.766 127.074 288.76 127.054 288.754 127.033C288.756 127.041 288.758 127.048 288.76 127.056C287.469 123.002 286.184 118.946 285.06 114.842L285.061 114.845C285.008 114.67 284.956 114.494 284.904 114.318C284.907 114.327 284.91 114.338 284.913 114.348C284.125 111.873 283.43 109.367 282.525 106.931C282.527 106.936 282.529 106.941 282.532 106.946C282.527 106.935 282.522 106.924 282.518 106.913L282.524 106.927C282.265 106.24 281.694 105.609 281.842 104.831C281.856 104.762 281.91 104.575 282.018 104.647C282.212 104.803 282.03 105.087 282.126 105.28C282.122 105.267 282.118 105.254 282.115 105.242C283.596 108.38 284.433 111.788 285.52 115.078L285.52 115.078C285.535 115.129 285.55 115.181 285.565 115.232L285.565 115.232C285.568 115.24 285.57 115.249 285.573 115.258L285.572 115.254L285.579 115.278L285.577 115.273C285.879 116.319 286.186 117.362 286.507 118.402L286.506 118.398C286.508 118.406 286.51 118.413 286.512 118.421L286.51 118.412C287.514 121.821 288.746 125.158 289.744 128.568C289.739 128.547 289.733 128.526 289.726 128.505C289.768 128.644 289.81 128.784 289.851 128.923C289.849 128.918 289.848 128.913 289.847 128.908C292.565 137.516 294.415 146.332 296.295 155.147C296.474 155.662 298.524 163.808 297.035 161.646Z" fill="white"/>
<path d="M283.954 155.128C283.874 154.765 284.061 154.457 284.412 154.35L284.404 154.354C284.52 154.294 284.636 154.235 284.753 154.175L284.738 154.183C286.549 153.248 288.283 152.173 290.081 151.212C290.07 151.219 290.057 151.225 290.045 151.231C290.115 151.196 290.184 151.16 290.252 151.125L290.247 151.128L290.263 151.119L290.256 151.123C291.52 150.628 292.796 149.831 294.108 149.587C294.37 149.876 294.155 150.334 293.803 150.429L293.814 150.423C293.766 150.448 293.719 150.472 293.672 150.497L293.675 150.495C293.665 150.5 293.655 150.506 293.645 150.511L293.647 150.51C293.63 150.519 293.613 150.528 293.596 150.536L293.6 150.534L293.587 150.541L293.591 150.539C290.569 151.881 287.739 153.567 284.835 155.14C284.847 155.133 284.859 155.127 284.871 155.12C284.563 155.249 284.015 155.741 283.954 155.128Z" fill="white"/>
<path d="M288.333 140.791C288.206 140.562 288.186 140.149 288.424 139.989C289.583 139.59 290.555 138.832 291.632 138.27C292.115 137.939 292.518 138.483 292.138 138.847C290.905 139.337 289.899 140.31 288.644 140.794C288.649 140.792 288.654 140.789 288.659 140.786C288.55 140.847 288.412 140.941 288.333 140.791Z" fill="white"/>
<path d="M275.067 129.578C275.065 129.276 275.518 129.291 275.716 129.122L275.713 129.124C276.65 128.625 277.661 128.289 278.601 127.798L278.593 127.802C281.361 126.175 284.193 124.625 287.128 123.376C287.568 123.531 287.554 124.611 287.027 124.644C287.038 124.642 287.048 124.641 287.057 124.639L287.049 124.64C287.057 124.639 287.065 124.637 287.074 124.636C287.033 124.645 286.991 124.641 286.953 124.658L286.968 124.65C285.104 125.338 283.213 125.988 281.477 126.977L281.48 126.975C281.47 126.98 281.461 126.985 281.451 126.99L281.455 126.988C281.43 127.001 281.405 127.013 281.38 127.026L281.385 127.024C281.311 127.062 281.236 127.099 281.162 127.137L281.163 127.137C279.483 128.094 277.646 128.675 275.888 129.45L275.892 129.448L275.877 129.456L275.881 129.454C275.652 129.513 275.083 130.045 275.067 129.578Z" fill="white"/>
<path d="M286.999 121.108C288.612 120.058 290.916 119.405 292.796 118.578C293.468 118.509 296.411 116.497 295.7 118.203C293.049 119.155 290.363 120.117 287.721 121.131C287.496 121.174 286.995 121.531 286.999 121.108Z" fill="white"/>
<path d="M291.411 134.863C291.691 134.184 293.918 133.754 294.683 133.335C295.084 133.276 295.613 132.801 295.96 133C296.086 133.226 296.108 133.649 295.869 133.802C294.435 134.097 293.012 134.524 291.662 135.095C291.491 135.231 291.396 135.008 291.411 134.863Z" fill="white"/>
<path d="M281.052 146.661C280.71 145.83 280.593 144.179 281.614 143.821C283.044 144.001 282.358 148.566 281.052 146.661Z" fill="white"/>
<path d="M283.17 142.375C283.008 141.979 282.952 141.194 283.438 141.023C284.119 141.11 283.792 143.282 283.17 142.375Z" fill="white"/>
<path d="M286.949 145.883C286.875 145.785 286.947 145.397 287.087 145.595C287.161 145.693 287.089 146.081 286.949 145.883Z" fill="white"/>
<path d="M299.513 138.557C299.244 138.203 299.506 136.795 300.012 137.512C300.281 137.866 300.019 139.274 299.513 138.557Z" fill="white"/>
<path d="M278.396 113.969C278.249 113.61 278.197 112.898 278.638 112.743C279.265 112.841 278.962 114.751 278.396 113.969Z" fill="white"/>
<path d="M284.998 109.521C284.818 109.077 284.753 108.195 285.299 108.005C286.061 108.101 285.697 110.537 284.998 109.521Z" fill="white"/>
<path d="M179.037 17.4917C178.88 17.2917 178.852 17.027 178.772 16.7905C178.777 16.8052 178.781 16.82 178.785 16.8349C178.695 16.5395 178.586 16.2513 178.472 15.9637L178.477 15.9741C178.474 15.9666 178.47 15.9592 178.468 15.9517L178.471 15.9603C178.3 15.5454 178.116 15.1365 177.903 14.7408L177.903 14.7424L177.899 14.7332L177.902 14.7389C177.889 14.7159 177.876 14.6927 177.863 14.6697L177.864 14.6708C177.35 12.7985 179.038 16.1473 179.094 16.5542L179.09 16.5419C179.095 16.5558 179.101 16.5692 179.107 16.5831C179.104 16.5786 179.102 16.5741 179.101 16.5696C179.108 16.5871 179.115 16.6043 179.122 16.6215L179.118 16.6117C179.293 16.8131 179.478 17.6194 179.037 17.4917Z" fill="white"/>
<path d="M180.646 16.8808C180.291 15.897 179.302 14.0892 179.73 13.1408C179.986 13.1303 179.915 13.5355 179.966 13.6983C179.964 13.6923 179.963 13.6863 179.962 13.6802C180.098 14.7663 181.133 15.6957 181.004 16.7644C180.966 16.9379 180.762 17.0834 180.646 16.8808Z" fill="white"/>
<path d="M182.233 15.6859C181.907 15.5229 181.205 11.7246 182.013 13.1432C181.915 13.8542 183.179 15.3965 182.233 15.6859Z" fill="white"/>
<path d="M185.009 37.7129C184.32 36.9099 184.834 35.5617 184.48 34.5779C184.483 34.5958 184.486 34.6128 184.489 34.6297C184.423 34.3402 184.337 34.0578 184.232 33.7799C184.235 33.7877 184.238 33.7953 184.242 33.8025C184.237 33.7913 184.232 33.7802 184.228 33.7687L184.231 33.7755C184.018 33.583 184.141 32.6623 184.371 33.2475C184.657 33.9074 185.936 37.5525 185.009 37.7129Z" fill="white"/>
<path d="M187.01 36.2163C186.997 35.9222 186.992 35.6292 186.982 35.3363C186.983 35.3701 186.984 35.404 186.985 35.4378C186.965 34.9569 186.917 34.4794 186.821 34.0067L186.825 34.0254C186.821 34.0072 186.817 33.9891 186.814 33.9709C186.815 33.978 186.817 33.985 186.819 33.9919C186.807 33.938 186.796 33.883 186.785 33.828C186.789 33.8491 186.794 33.8713 186.799 33.8936C186.794 33.8726 186.79 33.8518 186.786 33.831C186.787 33.8356 186.788 33.8403 186.789 33.8449C186.741 33.2447 186.276 32.4078 186.717 31.9019C187.069 31.9313 187.218 34.0676 187.456 34.5631C187.451 34.5366 187.446 34.5102 187.441 34.4838C187.456 34.5608 187.472 34.637 187.487 34.7131C187.483 34.6942 187.479 34.6754 187.475 34.6572C187.533 35.3482 188.033 36.2273 187.486 36.8181C187.175 37.0318 187.016 36.4105 187.01 36.2163Z" fill="white"/>
<path d="M181.591 40.1081C181.055 39.5319 181.529 38.6639 181.48 37.9698C181.598 36.9869 181.129 35.7458 181.559 34.8829C181.898 35.3142 181.588 36.1166 181.764 36.6683C181.685 37.3979 182.618 40.115 181.591 40.1081Z" fill="white"/>
<path d="M146.047 66.9602C145.903 66.5637 146.047 66.1372 146.426 65.9435C146.929 65.5435 147.223 64.8826 147.778 64.5665C148.043 64.4831 148.063 65.0276 147.867 65.0817C147.716 65.0829 147.641 65.2655 147.543 65.3606C147.546 65.3564 147.549 65.3519 147.553 65.3472C147.547 65.3551 147.541 65.3628 147.535 65.3705L147.542 65.3615C147.179 65.5891 146.352 67.7485 146.047 66.9602Z" fill="white"/>
<path d="M147.221 70.1371C147.097 69.4774 147.626 69.3228 148.149 69.2106C148.632 69.0444 149.227 68.6748 149.24 69.4803C149.401 70.453 148.196 70.3597 147.575 70.6681C147.322 70.7565 147.234 70.2921 147.221 70.1371Z" fill="white"/>
<path d="M172.044 80.4999C171.882 79.709 170.84 76.6968 171.216 76.249C171.67 76.6921 171.768 77.5794 172.071 78.1786C172.214 78.6937 172.662 79.0577 172.756 79.5786C172.914 80.0184 172.524 81.2957 172.044 80.4999Z" fill="white"/>
<path d="M175.109 78.0543C174.836 77.4503 174.85 72.6741 175.969 74.88C175.932 75.9917 176.176 77.1092 176.088 78.2151C175.881 79.1594 175.19 78.8549 175.109 78.0543Z" fill="white"/>
<path d="M198.314 83.697C197.581 81.8347 199.092 81.5413 200.482 81.0316C201.36 81.0237 201.285 82.5303 201.095 83.1205C200.955 83.7867 200.193 83.724 199.665 83.8525C199.21 83.8703 198.539 84.3015 198.314 83.697Z" fill="white"/>
<path d="M198.27 87.7847C198.068 87.2896 197.996 86.2989 198.605 86.0902C198.993 86.126 199.365 86.003 199.73 85.8893C200.368 85.8767 200.316 86.9844 200.177 87.4102C200.011 87.9609 198.541 88.3904 198.27 87.7847Z" fill="white"/>
<path d="M137.056 124.825C136.167 124.73 134.348 124.654 134.355 123.484C134.391 122.703 134.92 123.142 135.335 123.358C135.32 123.35 135.307 123.343 135.293 123.337C137.424 124.332 139.837 123.229 141.903 122.535C142.023 122.49 142.128 122.586 142.188 122.676C142.408 123.081 142.45 123.816 142.026 124.094C140.397 124.451 138.736 124.899 137.056 124.825Z" fill="white"/>
<path d="M178.246 125.389C176.102 125.486 167.745 122.986 168.439 120.241C168.663 120.007 169.025 121.228 169.399 121.365L169.393 121.36C169.403 121.368 169.411 121.376 169.42 121.384C169.416 121.38 169.412 121.376 169.408 121.372C171.938 123.211 175.165 123.984 178.246 123.398C178.906 123.573 178.901 125.214 178.246 125.389Z" fill="white"/>
<path d="M171.49 196.031C170.378 195.762 165.159 196.56 165.418 195.033C165.415 194.799 165.674 194.603 165.859 194.801C177.27 195.234 188.749 194.662 200.184 194.884C210.191 194.763 220.323 195.571 230.196 193.6C230.779 193.586 230.718 194.947 230.252 195.057C210.735 196.856 191.073 195.678 171.49 196.031Z" fill="white"/>
<path d="M108.927 188.502C105.917 186.283 101.908 186.024 98.5125 184.564C91.6207 181.897 84.442 179.937 77.6746 176.979C77.6815 176.982 77.6885 176.986 77.6958 176.989C77.6661 176.974 77.6364 176.959 77.6069 176.944L77.6088 176.945C77.5545 176.917 77.5008 176.889 77.446 176.861L77.456 176.866C77.3512 176.812 77.2464 176.758 77.1416 176.704C77.1522 176.71 77.1627 176.715 77.1733 176.721C77.1003 176.684 77.0283 176.646 76.9554 176.609C76.9702 176.616 76.985 176.623 76.9998 176.631C76.9829 176.622 76.9654 176.613 76.9478 176.605C76.9564 176.609 76.965 176.613 76.9733 176.617C76.7341 176.495 76.4968 176.371 76.2576 176.247L76.2626 176.25C74.187 175.091 71.7149 174.254 69.8559 172.893C69.3208 170.237 71.9641 173.101 72.9805 173.353C72.9716 173.349 72.9629 173.345 72.9543 173.34C73.0511 173.391 73.1481 173.44 73.2449 173.49C73.2301 173.482 73.2143 173.475 73.1995 173.466C74.2677 174.007 75.3487 174.522 76.4117 175.073L76.4013 175.067C76.6242 175.182 76.8471 175.297 77.07 175.412L77.0691 175.412L77.0713 175.413L77.0643 175.409C77.0792 175.417 77.0946 175.425 77.1098 175.432L77.1081 175.432L77.1161 175.436C77.1011 175.428 77.0855 175.421 77.0706 175.413C83.9967 178.648 91.5141 180.454 98.581 183.383C101.895 185 106.287 185.196 108.849 187.985L108.845 187.98C108.868 188.01 108.892 188.04 108.918 188.068C108.913 188.065 108.909 188.06 108.903 188.056C108.947 188.098 109 188.123 109.056 188.144C109.05 188.143 109.045 188.142 109.04 188.142C109.126 188.154 109.199 188.152 109.287 188.142L109.271 188.145C109.334 188.134 109.395 188.123 109.453 188.096L109.448 188.099C109.581 188.041 109.617 188.429 109.504 188.488C109.329 188.56 109.097 188.603 108.927 188.502Z" fill="white"/>
<path d="M217.797 190.054C217.311 189.483 218.063 184.003 219.074 185.488C219.433 186.367 218.49 187.039 218.511 187.9C218.45 188.376 218.742 191.031 217.797 190.054Z" fill="white"/>
<path d="M222.557 188.234C222.44 187.235 222.897 185.953 223.716 185.412C224.055 185.645 224.001 186.262 223.747 186.545C223.754 186.537 223.76 186.528 223.766 186.52C223.451 186.979 222.997 187.461 223.072 188.057C223.071 188.026 223.07 187.997 223.069 187.967C223.211 188.539 222.646 189.091 222.557 188.234Z" fill="white"/>
<path d="M231.623 205.877C231.142 205.102 232.14 202.861 232.789 202.418C233.18 202.694 233.063 203.339 232.827 203.688C232.391 204.043 232.097 206.225 231.623 205.877Z" fill="white"/>
<path d="M236.262 204.893C235.802 204.061 237.771 201.819 237.249 203.924C236.945 204.09 236.563 205.426 236.262 204.893Z" fill="white"/>
<path d="M99.3822 115.933C98.7893 115.973 98.77 114.375 99.3778 114.621C99.5088 114.356 99.7599 114.567 99.7999 114.777C100.094 114.846 100.088 115.521 99.8104 115.589C99.7659 115.795 99.614 115.989 99.3822 115.933Z" fill="white"/>
<path d="M99.6689 115.979C98.8483 116.038 99.2504 113.792 99.7872 114.755L99.782 114.742C99.8155 114.824 99.9095 114.857 99.9872 114.886C100.115 114.939 100.105 115.346 99.9227 115.276C99.9411 115.506 99.9447 115.911 99.6689 115.979Z" fill="white"/>
<path d="M112.912 123.355C112.77 123.08 112.733 122.762 112.662 122.463C112.667 122.491 112.672 122.518 112.678 122.546C112.033 119.635 111.348 116.735 110.802 113.805C110.804 113.817 110.806 113.829 110.809 113.841C110.184 108.577 112.691 120.471 112.976 121.186L112.972 121.165C113.035 121.478 113.117 121.788 113.18 122.101C113.177 122.088 113.174 122.074 113.171 122.06C113.177 122.089 113.182 122.117 113.188 122.144C113.186 122.132 113.183 122.12 113.181 122.108C113.329 122.394 113.541 123.812 112.912 123.355Z" fill="white"/>
<path d="M102.567 139.953C102.27 139.394 102.027 138.568 102.265 137.946C102.44 137.622 102.669 138.018 102.649 138.227C102.559 138.699 103.333 139.834 102.567 139.953Z" fill="white"/>
<path d="M98.1644 127.119C97.6059 126.61 97.5793 125.288 98.2425 124.864C99.5067 124.76 100.787 124.811 102.054 124.874L102.045 124.875C102.72 125.053 102.717 126.664 102.051 126.853L102.054 126.854C100.749 126.782 99.3821 126.823 98.1644 127.119Z" fill="white"/>
<path d="M98.3103 130.661C98.3082 130.656 98.305 130.651 98.3029 130.647C98.3305 130.628 98.3581 130.61 98.3857 130.591C98.2481 130.114 97.7657 127.875 99.0718 127.962C100.379 128.164 102.973 126.848 103.313 128.75C103.635 130.503 102.367 130.888 100.927 130.399C100.059 130.332 98.7977 131.754 98.3103 130.661Z" fill="white"/>
<path d="M100.051 134.433C99.8838 134.406 99.7369 134.254 99.6459 134.114L99.6472 134.112C99.1697 133.261 99.1178 131.727 100.009 131.142C101.167 131.283 102.466 131.256 103.554 131.715C104.122 132.243 104.168 133.662 103.398 134.016C102.927 134.092 102.445 134.027 101.978 133.949L101.998 133.953C101.251 133.674 100.675 134.303 100.051 134.433Z" fill="white"/>
<path d="M100.336 138.327C99.4217 137.399 99.418 135.435 100.336 134.507C100.801 134.288 101.307 134.668 101.829 134.525C103.198 134.51 105.083 135.195 104.712 136.885C104.673 137.114 104.449 137.836 104.077 137.557C102.165 136.842 101.063 138.695 100.336 138.327Z" fill="white"/>
<path d="M299.368 300.067C295.58 300.091 291.828 299.595 288.069 299.197C286.81 298.957 285.283 299.284 284.173 298.657C282.298 294.036 281.629 288.905 281.122 283.95C280.615 272.362 279.089 260.784 280.072 249.181C280.358 248.153 280.14 242.308 281.223 242.669C281.448 242.462 281.778 242.45 282.056 242.704C292.867 241.591 303.604 239.383 314.518 239.324C317.724 239.4 321.182 238.989 324.19 240.287C325.862 241.9 325.263 244.694 325.401 246.813V246.724C325.401 246.865 325.401 247.005 325.4 247.146V246.914C325.179 253.533 324.965 260.161 324.515 266.769C324.515 266.768 324.515 266.766 324.516 266.764C323.665 276.944 322.443 287.205 319.882 297.101C319.553 298.382 318.161 298.202 317.125 298.359C314.153 298.761 311.174 299.144 308.212 299.615C308.268 299.608 308.325 299.602 308.382 299.594C305.394 299.973 302.377 300.066 299.368 300.067Z" fill="#369871"/>
</g>
<defs>
<clipPath id="clip0_2979_19282">
<rect width="387.036" height="359.774" fill="white" transform="translate(0.964355 0.977783)"/>
</clipPath>
</defs>
</svg>
